  0
SECTION
  2
HEADER
  9
$ANGBASE
  50
0.0
  9
$ANGDIR
  70
1
  9
$MEASUREMENT
  70
1
  0
ENDSEC
  0
SECTION
  2
TABLES
  0
TABLE
  2
LTYPE
  70
4
  0
LTYPE
  5
40F
  2
CONTINUOUS
  70
0
  3
Solid line
  72
65
  73
0
  40
0.0
  0
LTYPE
  5
410
  2
DASHDOT
 70
0
  3
Dash Dot ____ _ ____ _
 72
65
 73
4
 40
2.0
 49
1.25
 49
-0.25
 49
0.25
 49
-0.25
  0
LTYPE
  5
411
  2
DASHED
 70
0
  3
Dashed __ __ __ __ __
 72
65
 73
2
 40
0.75
 49
0.5
 49
-0.25
  0
LTYPE
  5
43B
  2
DOTTED
 70
0
  3
Dotted .  .  .  .
 72
65
 73
2
 40
0.2
 49
0.0
 49
-0.2
  0
ENDTAB
  0
TABLE
  2
STYLE
  70
4
  0
STYLE
  2
KICAD
  70
0
  40
0
  41
1
  42
1
  50
0
  71
0
  3
isocp.shx
  0
STYLE
  2
KICADB
  70
0
  40
0
  41
1
  42
1
  50
0
  71
0
  3
isocp.shx
  0
STYLE
  2
KICADI
  70
0
  40
0
  41
1
  42
1
  50
15
  71
0
  3
isocp.shx
  0
STYLE
  2
KICADBI
  70
0
  40
0
  41
1
  42
1
  50
15
  71
0
  3
isocp.shx
  0
ENDTAB
  0
TABLE
  2
LAYER
  70
1
  0
LAYER
  2
BLACK
  70
0
  62
7
  6
CONTINUOUS
  0
ENDTAB
  0
ENDSEC
  0
SECTION
  2
ENTITIES
0
LINE
8
BLACK
6
CONTINUOUS
10
158.5612150000000042
20
-88.1473790000000008
11
158.6342099999999959
21
-88.1961529999999954
0
LINE
8
BLACK
6
CONTINUOUS
10
158.6342099999999959
20
-88.1961529999999954
11
158.6829840000000047
21
-88.2691480000000013
0
LINE
8
BLACK
6
CONTINUOUS
10
158.6829840000000047
20
-88.2691480000000013
11
158.7001109999999926
21
-88.355251999999993
0
LINE
8
BLACK
6
CONTINUOUS
10
158.7001109999999926
20
-88.355251999999993
11
158.7001109999999926
21
-88.8052519999999959
0
LINE
8
BLACK
6
CONTINUOUS
10
158.7001109999999926
20
-88.8052519999999959
11
158.6829840000000047
21
-88.8913560000000018
0
LINE
8
BLACK
6
CONTINUOUS
10
158.6829840000000047
20
-88.8913560000000018
11
158.6342099999999959
21
-88.9643509999999935
0
LINE
8
BLACK
6
CONTINUOUS
10
158.6342099999999959
20
-88.9643509999999935
11
158.5612150000000042
21
-89.0131250000000023
0
LINE
8
BLACK
6
CONTINUOUS
10
158.5612150000000042
20
-89.0131250000000023
11
158.4751109999999983
21
-89.0302519999999902
0
LINE
8
BLACK
6
CONTINUOUS
10
158.4751109999999983
20
-89.0302519999999902
11
157.7251109999999983
21
-89.0302519999999902
0
LINE
8
BLACK
6
CONTINUOUS
10
157.7251109999999983
20
-89.0302519999999902
11
157.6390069999999923
21
-89.0131250000000023
0
LINE
8
BLACK
6
CONTINUOUS
10
157.6390069999999923
20
-89.0131250000000023
11
157.5660120000000006
21
-88.9643509999999935
0
LINE
8
BLACK
6
CONTINUOUS
10
157.5660120000000006
20
-88.9643509999999935
11
157.5172379999999919
21
-88.8913560000000018
0
LINE
8
BLACK
6
CONTINUOUS
10
157.5172379999999919
20
-88.8913560000000018
11
157.500111000000004
21
-88.8052519999999959
0
LINE
8
BLACK
6
CONTINUOUS
10
157.500111000000004
20
-88.8052519999999959
11
157.500111000000004
21
-88.355251999999993
0
LINE
8
BLACK
6
CONTINUOUS
10
157.500111000000004
20
-88.355251999999993
11
157.5172379999999919
21
-88.2691480000000013
0
LINE
8
BLACK
6
CONTINUOUS
10
157.5172379999999919
20
-88.2691480000000013
11
157.5660120000000006
21
-88.1961529999999954
0
LINE
8
BLACK
6
CONTINUOUS
10
157.5660120000000006
20
-88.1961529999999954
11
157.6390069999999923
21
-88.1473790000000008
0
LINE
8
BLACK
6
CONTINUOUS
10
157.6390069999999923
20
-88.1473790000000008
11
157.7251109999999983
21
-88.1302519999999987
0
LINE
8
BLACK
6
CONTINUOUS
10
157.7251109999999983
20
-88.1302519999999987
11
158.4751109999999983
21
-88.1302519999999987
0
LINE
8
BLACK
6
CONTINUOUS
10
158.4751109999999983
20
-88.1302519999999987
11
158.5612150000000042
21
-88.1473790000000008
0
LINE
8
BLACK
6
CONTINUOUS
10
161.1012149999999963
20
-88.1473790000000008
11
161.174209999999988
21
-88.1961529999999954
0
LINE
8
BLACK
6
CONTINUOUS
10
161.174209999999988
20
-88.1961529999999954
11
161.2229839999999967
21
-88.2691480000000013
0
LINE
8
BLACK
6
CONTINUOUS
10
161.2229839999999967
20
-88.2691480000000013
11
161.2401109999999846
21
-88.355251999999993
0
LINE
8
BLACK
6
CONTINUOUS
10
161.2401109999999846
20
-88.355251999999993
11
161.2401109999999846
21
-88.8052519999999959
0
LINE
8
BLACK
6
CONTINUOUS
10
161.2401109999999846
20
-88.8052519999999959
11
161.2229839999999967
21
-88.8913560000000018
0
LINE
8
BLACK
6
CONTINUOUS
10
161.2229839999999967
20
-88.8913560000000018
11
161.174209999999988
21
-88.9643509999999935
0
LINE
8
BLACK
6
CONTINUOUS
10
161.174209999999988
20
-88.9643509999999935
11
161.1012149999999963
21
-89.0131250000000023
0
LINE
8
BLACK
6
CONTINUOUS
10
161.1012149999999963
20
-89.0131250000000023
11
161.0151109999999903
21
-89.0302519999999902
0
LINE
8
BLACK
6
CONTINUOUS
10
161.0151109999999903
20
-89.0302519999999902
11
160.2651109999999903
21
-89.0302519999999902
0
LINE
8
BLACK
6
CONTINUOUS
10
160.2651109999999903
20
-89.0302519999999902
11
160.1790069999999844
21
-89.0131250000000023
0
LINE
8
BLACK
6
CONTINUOUS
10
160.1790069999999844
20
-89.0131250000000023
11
160.1060119999999927
21
-88.9643509999999935
0
LINE
8
BLACK
6
CONTINUOUS
10
160.1060119999999927
20
-88.9643509999999935
11
160.0572379999999839
21
-88.8913560000000018
0
LINE
8
BLACK
6
CONTINUOUS
10
160.0572379999999839
20
-88.8913560000000018
11
160.040110999999996
21
-88.8052519999999959
0
LINE
8
BLACK
6
CONTINUOUS
10
160.040110999999996
20
-88.8052519999999959
11
160.040110999999996
21
-88.355251999999993
0
LINE
8
BLACK
6
CONTINUOUS
10
160.040110999999996
20
-88.355251999999993
11
160.0572379999999839
21
-88.2691480000000013
0
LINE
8
BLACK
6
CONTINUOUS
10
160.0572379999999839
20
-88.2691480000000013
11
160.1060119999999927
21
-88.1961529999999954
0
LINE
8
BLACK
6
CONTINUOUS
10
160.1060119999999927
20
-88.1961529999999954
11
160.1790069999999844
21
-88.1473790000000008
0
LINE
8
BLACK
6
CONTINUOUS
10
160.1790069999999844
20
-88.1473790000000008
11
160.2651109999999903
21
-88.1302519999999987
0
LINE
8
BLACK
6
CONTINUOUS
10
160.2651109999999903
20
-88.1302519999999987
11
161.0151109999999903
21
-88.1302519999999987
0
LINE
8
BLACK
6
CONTINUOUS
10
161.0151109999999903
20
-88.1302519999999987
11
161.1012149999999963
21
-88.1473790000000008
0
LINE
8
BLACK
6
CONTINUOUS
10
163.6412149999999883
20
-88.1473790000000008
11
163.71420999999998
21
-88.1961529999999954
0
LINE
8
BLACK
6
CONTINUOUS
10
163.71420999999998
20
-88.1961529999999954
11
163.7629839999999888
21
-88.2691480000000013
0
LINE
8
BLACK
6
CONTINUOUS
10
163.7629839999999888
20
-88.2691480000000013
11
163.7801110000000051
21
-88.355251999999993
0
LINE
8
BLACK
6
CONTINUOUS
10
163.7801110000000051
20
-88.355251999999993
11
163.7801110000000051
21
-88.8052519999999959
0
LINE
8
BLACK
6
CONTINUOUS
10
163.7801110000000051
20
-88.8052519999999959
11
163.7629839999999888
21
-88.8913560000000018
0
LINE
8
BLACK
6
CONTINUOUS
10
163.7629839999999888
20
-88.8913560000000018
11
163.71420999999998
21
-88.9643509999999935
0
LINE
8
BLACK
6
CONTINUOUS
10
163.71420999999998
20
-88.9643509999999935
11
163.6412149999999883
21
-89.0131250000000023
0
LINE
8
BLACK
6
CONTINUOUS
10
163.6412149999999883
20
-89.0131250000000023
11
163.5551109999999824
21
-89.0302519999999902
0
LINE
8
BLACK
6
CONTINUOUS
10
163.5551109999999824
20
-89.0302519999999902
11
162.8051109999999824
21
-89.0302519999999902
0
LINE
8
BLACK
6
CONTINUOUS
10
162.8051109999999824
20
-89.0302519999999902
11
162.7190070000000048
21
-89.0131250000000023
0
LINE
8
BLACK
6
CONTINUOUS
10
162.7190070000000048
20
-89.0131250000000023
11
162.6460119999999847
21
-88.9643509999999935
0
LINE
8
BLACK
6
CONTINUOUS
10
162.6460119999999847
20
-88.9643509999999935
11
162.5972380000000044
21
-88.8913560000000018
0
LINE
8
BLACK
6
CONTINUOUS
10
162.5972380000000044
20
-88.8913560000000018
11
162.5801109999999881
21
-88.8052519999999959
0
LINE
8
BLACK
6
CONTINUOUS
10
162.5801109999999881
20
-88.8052519999999959
11
162.5801109999999881
21
-88.355251999999993
0
LINE
8
BLACK
6
CONTINUOUS
10
162.5801109999999881
20
-88.355251999999993
11
162.5972380000000044
21
-88.2691480000000013
0
LINE
8
BLACK
6
CONTINUOUS
10
162.5972380000000044
20
-88.2691480000000013
11
162.6460119999999847
21
-88.1961529999999954
0
LINE
8
BLACK
6
CONTINUOUS
10
162.6460119999999847
20
-88.1961529999999954
11
162.7190070000000048
21
-88.1473790000000008
0
LINE
8
BLACK
6
CONTINUOUS
10
162.7190070000000048
20
-88.1473790000000008
11
162.8051109999999824
21
-88.1302519999999987
0
LINE
8
BLACK
6
CONTINUOUS
10
162.8051109999999824
20
-88.1302519999999987
11
163.5551109999999824
21
-88.1302519999999987
0
LINE
8
BLACK
6
CONTINUOUS
10
163.5551109999999824
20
-88.1302519999999987
11
163.6412149999999883
21
-88.1473790000000008
0
LINE
8
BLACK
6
CONTINUOUS
10
166.1812149999999804
20
-88.1473790000000008
11
166.2542100000000005
21
-88.1961529999999954
0
LINE
8
BLACK
6
CONTINUOUS
10
166.2542100000000005
20
-88.1961529999999954
11
166.3029839999999808
21
-88.2691480000000013
0
LINE
8
BLACK
6
CONTINUOUS
10
166.3029839999999808
20
-88.2691480000000013
11
166.3201109999999971
21
-88.355251999999993
0
LINE
8
BLACK
6
CONTINUOUS
10
166.3201109999999971
20
-88.355251999999993
11
166.3201109999999971
21
-88.8052519999999959
0
LINE
8
BLACK
6
CONTINUOUS
10
166.3201109999999971
20
-88.8052519999999959
11
166.3029839999999808
21
-88.8913560000000018
0
LINE
8
BLACK
6
CONTINUOUS
10
166.3029839999999808
20
-88.8913560000000018
11
166.2542100000000005
21
-88.9643509999999935
0
LINE
8
BLACK
6
CONTINUOUS
10
166.2542100000000005
20
-88.9643509999999935
11
166.1812149999999804
21
-89.0131250000000023
0
LINE
8
BLACK
6
CONTINUOUS
10
166.1812149999999804
20
-89.0131250000000023
11
166.0951110000000028
21
-89.0302519999999902
0
LINE
8
BLACK
6
CONTINUOUS
10
166.0951110000000028
20
-89.0302519999999902
11
165.3451110000000028
21
-89.0302519999999902
0
LINE
8
BLACK
6
CONTINUOUS
10
165.3451110000000028
20
-89.0302519999999902
11
165.2590069999999969
21
-89.0131250000000023
0
LINE
8
BLACK
6
CONTINUOUS
10
165.2590069999999969
20
-89.0131250000000023
11
165.1860120000000052
21
-88.9643509999999935
0
LINE
8
BLACK
6
CONTINUOUS
10
165.1860120000000052
20
-88.9643509999999935
11
165.1372379999999964
21
-88.8913560000000018
0
LINE
8
BLACK
6
CONTINUOUS
10
165.1372379999999964
20
-88.8913560000000018
11
165.1201109999999801
21
-88.8052519999999959
0
LINE
8
BLACK
6
CONTINUOUS
10
165.1201109999999801
20
-88.8052519999999959
11
165.1201109999999801
21
-88.355251999999993
0
LINE
8
BLACK
6
CONTINUOUS
10
165.1201109999999801
20
-88.355251999999993
11
165.1372379999999964
21
-88.2691480000000013
0
LINE
8
BLACK
6
CONTINUOUS
10
165.1372379999999964
20
-88.2691480000000013
11
165.1860120000000052
21
-88.1961529999999954
0
LINE
8
BLACK
6
CONTINUOUS
10
165.1860120000000052
20
-88.1961529999999954
11
165.2590069999999969
21
-88.1473790000000008
0
LINE
8
BLACK
6
CONTINUOUS
10
165.2590069999999969
20
-88.1473790000000008
11
165.3451110000000028
21
-88.1302519999999987
0
LINE
8
BLACK
6
CONTINUOUS
10
165.3451110000000028
20
-88.1302519999999987
11
166.0951110000000028
21
-88.1302519999999987
0
LINE
8
BLACK
6
CONTINUOUS
10
166.0951110000000028
20
-88.1302519999999987
11
166.1812149999999804
21
-88.1473790000000008
0
LINE
8
BLACK
6
CONTINUOUS
10
168.7212150000000008
20
-88.1473790000000008
11
168.7942099999999925
21
-88.1961529999999954
0
LINE
8
BLACK
6
CONTINUOUS
10
168.7942099999999925
20
-88.1961529999999954
11
168.8429840000000013
21
-88.2691480000000013
0
LINE
8
BLACK
6
CONTINUOUS
10
168.8429840000000013
20
-88.2691480000000013
11
168.8601109999999892
21
-88.355251999999993
0
LINE
8
BLACK
6
CONTINUOUS
10
168.8601109999999892
20
-88.355251999999993
11
168.8601109999999892
21
-88.8052519999999959
0
LINE
8
BLACK
6
CONTINUOUS
10
168.8601109999999892
20
-88.8052519999999959
11
168.8429840000000013
21
-88.8913560000000018
0
LINE
8
BLACK
6
CONTINUOUS
10
168.8429840000000013
20
-88.8913560000000018
11
168.7942099999999925
21
-88.9643509999999935
0
LINE
8
BLACK
6
CONTINUOUS
10
168.7942099999999925
20
-88.9643509999999935
11
168.7212150000000008
21
-89.0131250000000023
0
LINE
8
BLACK
6
CONTINUOUS
10
168.7212150000000008
20
-89.0131250000000023
11
168.6351109999999949
21
-89.0302519999999902
0
LINE
8
BLACK
6
CONTINUOUS
10
168.6351109999999949
20
-89.0302519999999902
11
167.8851109999999949
21
-89.0302519999999902
0
LINE
8
BLACK
6
CONTINUOUS
10
167.8851109999999949
20
-89.0302519999999902
11
167.7990069999999889
21
-89.0131250000000023
0
LINE
8
BLACK
6
CONTINUOUS
10
167.7990069999999889
20
-89.0131250000000023
11
167.7260119999999972
21
-88.9643509999999935
0
LINE
8
BLACK
6
CONTINUOUS
10
167.7260119999999972
20
-88.9643509999999935
11
167.6772379999999885
21
-88.8913560000000018
0
LINE
8
BLACK
6
CONTINUOUS
10
167.6772379999999885
20
-88.8913560000000018
11
167.6601110000000006
21
-88.8052519999999959
0
LINE
8
BLACK
6
CONTINUOUS
10
167.6601110000000006
20
-88.8052519999999959
11
167.6601110000000006
21
-88.355251999999993
0
LINE
8
BLACK
6
CONTINUOUS
10
167.6601110000000006
20
-88.355251999999993
11
167.6772379999999885
21
-88.2691480000000013
0
LINE
8
BLACK
6
CONTINUOUS
10
167.6772379999999885
20
-88.2691480000000013
11
167.7260119999999972
21
-88.1961529999999954
0
LINE
8
BLACK
6
CONTINUOUS
10
167.7260119999999972
20
-88.1961529999999954
11
167.7990069999999889
21
-88.1473790000000008
0
LINE
8
BLACK
6
CONTINUOUS
10
167.7990069999999889
20
-88.1473790000000008
11
167.8851109999999949
21
-88.1302519999999987
0
LINE
8
BLACK
6
CONTINUOUS
10
167.8851109999999949
20
-88.1302519999999987
11
168.6351109999999949
21
-88.1302519999999987
0
LINE
8
BLACK
6
CONTINUOUS
10
168.6351109999999949
20
-88.1302519999999987
11
168.7212150000000008
21
-88.1473790000000008
0
LINE
8
BLACK
6
CONTINUOUS
10
171.2612149999999929
20
-88.1473790000000008
11
171.3342099999999846
21
-88.1961529999999954
0
LINE
8
BLACK
6
CONTINUOUS
10
171.3342099999999846
20
-88.1961529999999954
11
171.3829839999999933
21
-88.2691480000000013
0
LINE
8
BLACK
6
CONTINUOUS
10
171.3829839999999933
20
-88.2691480000000013
11
171.4001109999999812
21
-88.355251999999993
0
LINE
8
BLACK
6
CONTINUOUS
10
171.4001109999999812
20
-88.355251999999993
11
171.4001109999999812
21
-88.8052519999999959
0
LINE
8
BLACK
6
CONTINUOUS
10
171.4001109999999812
20
-88.8052519999999959
11
171.3829839999999933
21
-88.8913560000000018
0
LINE
8
BLACK
6
CONTINUOUS
10
171.3829839999999933
20
-88.8913560000000018
11
171.3342099999999846
21
-88.9643509999999935
0
LINE
8
BLACK
6
CONTINUOUS
10
171.3342099999999846
20
-88.9643509999999935
11
171.2612149999999929
21
-89.0131250000000023
0
LINE
8
BLACK
6
CONTINUOUS
10
171.2612149999999929
20
-89.0131250000000023
11
171.1751109999999869
21
-89.0302519999999902
0
LINE
8
BLACK
6
CONTINUOUS
10
171.1751109999999869
20
-89.0302519999999902
11
170.4251109999999869
21
-89.0302519999999902
0
LINE
8
BLACK
6
CONTINUOUS
10
170.4251109999999869
20
-89.0302519999999902
11
170.339006999999981
21
-89.0131250000000023
0
LINE
8
BLACK
6
CONTINUOUS
10
170.339006999999981
20
-89.0131250000000023
11
170.2660119999999893
21
-88.9643509999999935
0
LINE
8
BLACK
6
CONTINUOUS
10
170.2660119999999893
20
-88.9643509999999935
11
170.2172379999999805
21
-88.8913560000000018
0
LINE
8
BLACK
6
CONTINUOUS
10
170.2172379999999805
20
-88.8913560000000018
11
170.2001109999999926
21
-88.8052519999999959
0
LINE
8
BLACK
6
CONTINUOUS
10
170.2001109999999926
20
-88.8052519999999959
11
170.2001109999999926
21
-88.355251999999993
0
LINE
8
BLACK
6
CONTINUOUS
10
170.2001109999999926
20
-88.355251999999993
11
170.2172379999999805
21
-88.2691480000000013
0
LINE
8
BLACK
6
CONTINUOUS
10
170.2172379999999805
20
-88.2691480000000013
11
170.2660119999999893
21
-88.1961529999999954
0
LINE
8
BLACK
6
CONTINUOUS
10
170.2660119999999893
20
-88.1961529999999954
11
170.339006999999981
21
-88.1473790000000008
0
LINE
8
BLACK
6
CONTINUOUS
10
170.339006999999981
20
-88.1473790000000008
11
170.4251109999999869
21
-88.1302519999999987
0
LINE
8
BLACK
6
CONTINUOUS
10
170.4251109999999869
20
-88.1302519999999987
11
171.1751109999999869
21
-88.1302519999999987
0
LINE
8
BLACK
6
CONTINUOUS
10
171.1751109999999869
20
-88.1302519999999987
11
171.2612149999999929
21
-88.1473790000000008
0
LINE
8
BLACK
6
CONTINUOUS
10
158.5612150000000042
20
-84.8473789999999894
11
158.6342099999999959
21
-84.8961529999999982
0
LINE
8
BLACK
6
CONTINUOUS
10
158.6342099999999959
20
-84.8961529999999982
11
158.6829840000000047
21
-84.9691479999999899
0
LINE
8
BLACK
6
CONTINUOUS
10
158.6829840000000047
20
-84.9691479999999899
11
158.7001109999999926
21
-85.0552519999999959
0
LINE
8
BLACK
6
CONTINUOUS
10
158.7001109999999926
20
-85.0552519999999959
11
158.7001109999999926
21
-85.5052519999999987
0
LINE
8
BLACK
6
CONTINUOUS
10
158.7001109999999926
20
-85.5052519999999987
11
158.6829840000000047
21
-85.5913559999999904
0
LINE
8
BLACK
6
CONTINUOUS
10
158.6829840000000047
20
-85.5913559999999904
11
158.6342099999999959
21
-85.6643509999999964
0
LINE
8
BLACK
6
CONTINUOUS
10
158.6342099999999959
20
-85.6643509999999964
11
158.5612150000000042
21
-85.7131249999999909
0
LINE
8
BLACK
6
CONTINUOUS
10
158.5612150000000042
20
-85.7131249999999909
11
158.4751109999999983
21
-85.730251999999993
0
LINE
8
BLACK
6
CONTINUOUS
10
158.4751109999999983
20
-85.730251999999993
11
157.7251109999999983
21
-85.730251999999993
0
LINE
8
BLACK
6
CONTINUOUS
10
157.7251109999999983
20
-85.730251999999993
11
157.6390069999999923
21
-85.7131249999999909
0
LINE
8
BLACK
6
CONTINUOUS
10
157.6390069999999923
20
-85.7131249999999909
11
157.5660120000000006
21
-85.6643509999999964
0
LINE
8
BLACK
6
CONTINUOUS
10
157.5660120000000006
20
-85.6643509999999964
11
157.5172379999999919
21
-85.5913559999999904
0
LINE
8
BLACK
6
CONTINUOUS
10
157.5172379999999919
20
-85.5913559999999904
11
157.500111000000004
21
-85.5052519999999987
0
LINE
8
BLACK
6
CONTINUOUS
10
157.500111000000004
20
-85.5052519999999987
11
157.500111000000004
21
-85.0552519999999959
0
LINE
8
BLACK
6
CONTINUOUS
10
157.500111000000004
20
-85.0552519999999959
11
157.5172379999999919
21
-84.9691479999999899
0
LINE
8
BLACK
6
CONTINUOUS
10
157.5172379999999919
20
-84.9691479999999899
11
157.5660120000000006
21
-84.8961529999999982
0
LINE
8
BLACK
6
CONTINUOUS
10
157.5660120000000006
20
-84.8961529999999982
11
157.6390069999999923
21
-84.8473789999999894
0
LINE
8
BLACK
6
CONTINUOUS
10
157.6390069999999923
20
-84.8473789999999894
11
157.7251109999999983
21
-84.8302520000000015
0
LINE
8
BLACK
6
CONTINUOUS
10
157.7251109999999983
20
-84.8302520000000015
11
158.4751109999999983
21
-84.8302520000000015
0
LINE
8
BLACK
6
CONTINUOUS
10
158.4751109999999983
20
-84.8302520000000015
11
158.5612150000000042
21
-84.8473789999999894
0
LINE
8
BLACK
6
CONTINUOUS
10
161.1012149999999963
20
-84.8473789999999894
11
161.174209999999988
21
-84.8961529999999982
0
LINE
8
BLACK
6
CONTINUOUS
10
161.174209999999988
20
-84.8961529999999982
11
161.2229839999999967
21
-84.9691479999999899
0
LINE
8
BLACK
6
CONTINUOUS
10
161.2229839999999967
20
-84.9691479999999899
11
161.2401109999999846
21
-85.0552519999999959
0
LINE
8
BLACK
6
CONTINUOUS
10
161.2401109999999846
20
-85.0552519999999959
11
161.2401109999999846
21
-85.5052519999999987
0
LINE
8
BLACK
6
CONTINUOUS
10
161.2401109999999846
20
-85.5052519999999987
11
161.2229839999999967
21
-85.5913559999999904
0
LINE
8
BLACK
6
CONTINUOUS
10
161.2229839999999967
20
-85.5913559999999904
11
161.174209999999988
21
-85.6643509999999964
0
LINE
8
BLACK
6
CONTINUOUS
10
161.174209999999988
20
-85.6643509999999964
11
161.1012149999999963
21
-85.7131249999999909
0
LINE
8
BLACK
6
CONTINUOUS
10
161.1012149999999963
20
-85.7131249999999909
11
161.0151109999999903
21
-85.730251999999993
0
LINE
8
BLACK
6
CONTINUOUS
10
161.0151109999999903
20
-85.730251999999993
11
160.2651109999999903
21
-85.730251999999993
0
LINE
8
BLACK
6
CONTINUOUS
10
160.2651109999999903
20
-85.730251999999993
11
160.1790069999999844
21
-85.7131249999999909
0
LINE
8
BLACK
6
CONTINUOUS
10
160.1790069999999844
20
-85.7131249999999909
11
160.1060119999999927
21
-85.6643509999999964
0
LINE
8
BLACK
6
CONTINUOUS
10
160.1060119999999927
20
-85.6643509999999964
11
160.0572379999999839
21
-85.5913559999999904
0
LINE
8
BLACK
6
CONTINUOUS
10
160.0572379999999839
20
-85.5913559999999904
11
160.040110999999996
21
-85.5052519999999987
0
LINE
8
BLACK
6
CONTINUOUS
10
160.040110999999996
20
-85.5052519999999987
11
160.040110999999996
21
-85.0552519999999959
0
LINE
8
BLACK
6
CONTINUOUS
10
160.040110999999996
20
-85.0552519999999959
11
160.0572379999999839
21
-84.9691479999999899
0
LINE
8
BLACK
6
CONTINUOUS
10
160.0572379999999839
20
-84.9691479999999899
11
160.1060119999999927
21
-84.8961529999999982
0
LINE
8
BLACK
6
CONTINUOUS
10
160.1060119999999927
20
-84.8961529999999982
11
160.1790069999999844
21
-84.8473789999999894
0
LINE
8
BLACK
6
CONTINUOUS
10
160.1790069999999844
20
-84.8473789999999894
11
160.2651109999999903
21
-84.8302520000000015
0
LINE
8
BLACK
6
CONTINUOUS
10
160.2651109999999903
20
-84.8302520000000015
11
161.0151109999999903
21
-84.8302520000000015
0
LINE
8
BLACK
6
CONTINUOUS
10
161.0151109999999903
20
-84.8302520000000015
11
161.1012149999999963
21
-84.8473789999999894
0
LINE
8
BLACK
6
CONTINUOUS
10
163.6412149999999883
20
-84.8473789999999894
11
163.71420999999998
21
-84.8961529999999982
0
LINE
8
BLACK
6
CONTINUOUS
10
163.71420999999998
20
-84.8961529999999982
11
163.7629839999999888
21
-84.9691479999999899
0
LINE
8
BLACK
6
CONTINUOUS
10
163.7629839999999888
20
-84.9691479999999899
11
163.7801110000000051
21
-85.0552519999999959
0
LINE
8
BLACK
6
CONTINUOUS
10
163.7801110000000051
20
-85.0552519999999959
11
163.7801110000000051
21
-85.5052519999999987
0
LINE
8
BLACK
6
CONTINUOUS
10
163.7801110000000051
20
-85.5052519999999987
11
163.7629839999999888
21
-85.5913559999999904
0
LINE
8
BLACK
6
CONTINUOUS
10
163.7629839999999888
20
-85.5913559999999904
11
163.71420999999998
21
-85.6643509999999964
0
LINE
8
BLACK
6
CONTINUOUS
10
163.71420999999998
20
-85.6643509999999964
11
163.6412149999999883
21
-85.7131249999999909
0
LINE
8
BLACK
6
CONTINUOUS
10
163.6412149999999883
20
-85.7131249999999909
11
163.5551109999999824
21
-85.730251999999993
0
LINE
8
BLACK
6
CONTINUOUS
10
163.5551109999999824
20
-85.730251999999993
11
162.8051109999999824
21
-85.730251999999993
0
LINE
8
BLACK
6
CONTINUOUS
10
162.8051109999999824
20
-85.730251999999993
11
162.7190070000000048
21
-85.7131249999999909
0
LINE
8
BLACK
6
CONTINUOUS
10
162.7190070000000048
20
-85.7131249999999909
11
162.6460119999999847
21
-85.6643509999999964
0
LINE
8
BLACK
6
CONTINUOUS
10
162.6460119999999847
20
-85.6643509999999964
11
162.5972380000000044
21
-85.5913559999999904
0
LINE
8
BLACK
6
CONTINUOUS
10
162.5972380000000044
20
-85.5913559999999904
11
162.5801109999999881
21
-85.5052519999999987
0
LINE
8
BLACK
6
CONTINUOUS
10
162.5801109999999881
20
-85.5052519999999987
11
162.5801109999999881
21
-85.0552519999999959
0
LINE
8
BLACK
6
CONTINUOUS
10
162.5801109999999881
20
-85.0552519999999959
11
162.5972380000000044
21
-84.9691479999999899
0
LINE
8
BLACK
6
CONTINUOUS
10
162.5972380000000044
20
-84.9691479999999899
11
162.6460119999999847
21
-84.8961529999999982
0
LINE
8
BLACK
6
CONTINUOUS
10
162.6460119999999847
20
-84.8961529999999982
11
162.7190070000000048
21
-84.8473789999999894
0
LINE
8
BLACK
6
CONTINUOUS
10
162.7190070000000048
20
-84.8473789999999894
11
162.8051109999999824
21
-84.8302520000000015
0
LINE
8
BLACK
6
CONTINUOUS
10
162.8051109999999824
20
-84.8302520000000015
11
163.5551109999999824
21
-84.8302520000000015
0
LINE
8
BLACK
6
CONTINUOUS
10
163.5551109999999824
20
-84.8302520000000015
11
163.6412149999999883
21
-84.8473789999999894
0
LINE
8
BLACK
6
CONTINUOUS
10
166.1812149999999804
20
-84.8473789999999894
11
166.2542100000000005
21
-84.8961529999999982
0
LINE
8
BLACK
6
CONTINUOUS
10
166.2542100000000005
20
-84.8961529999999982
11
166.3029839999999808
21
-84.9691479999999899
0
LINE
8
BLACK
6
CONTINUOUS
10
166.3029839999999808
20
-84.9691479999999899
11
166.3201109999999971
21
-85.0552519999999959
0
LINE
8
BLACK
6
CONTINUOUS
10
166.3201109999999971
20
-85.0552519999999959
11
166.3201109999999971
21
-85.5052519999999987
0
LINE
8
BLACK
6
CONTINUOUS
10
166.3201109999999971
20
-85.5052519999999987
11
166.3029839999999808
21
-85.5913559999999904
0
LINE
8
BLACK
6
CONTINUOUS
10
166.3029839999999808
20
-85.5913559999999904
11
166.2542100000000005
21
-85.6643509999999964
0
LINE
8
BLACK
6
CONTINUOUS
10
166.2542100000000005
20
-85.6643509999999964
11
166.1812149999999804
21
-85.7131249999999909
0
LINE
8
BLACK
6
CONTINUOUS
10
166.1812149999999804
20
-85.7131249999999909
11
166.0951110000000028
21
-85.730251999999993
0
LINE
8
BLACK
6
CONTINUOUS
10
166.0951110000000028
20
-85.730251999999993
11
165.3451110000000028
21
-85.730251999999993
0
LINE
8
BLACK
6
CONTINUOUS
10
165.3451110000000028
20
-85.730251999999993
11
165.2590069999999969
21
-85.7131249999999909
0
LINE
8
BLACK
6
CONTINUOUS
10
165.2590069999999969
20
-85.7131249999999909
11
165.1860120000000052
21
-85.6643509999999964
0
LINE
8
BLACK
6
CONTINUOUS
10
165.1860120000000052
20
-85.6643509999999964
11
165.1372379999999964
21
-85.5913559999999904
0
LINE
8
BLACK
6
CONTINUOUS
10
165.1372379999999964
20
-85.5913559999999904
11
165.1201109999999801
21
-85.5052519999999987
0
LINE
8
BLACK
6
CONTINUOUS
10
165.1201109999999801
20
-85.5052519999999987
11
165.1201109999999801
21
-85.0552519999999959
0
LINE
8
BLACK
6
CONTINUOUS
10
165.1201109999999801
20
-85.0552519999999959
11
165.1372379999999964
21
-84.9691479999999899
0
LINE
8
BLACK
6
CONTINUOUS
10
165.1372379999999964
20
-84.9691479999999899
11
165.1860120000000052
21
-84.8961529999999982
0
LINE
8
BLACK
6
CONTINUOUS
10
165.1860120000000052
20
-84.8961529999999982
11
165.2590069999999969
21
-84.8473789999999894
0
LINE
8
BLACK
6
CONTINUOUS
10
165.2590069999999969
20
-84.8473789999999894
11
165.3451110000000028
21
-84.8302520000000015
0
LINE
8
BLACK
6
CONTINUOUS
10
165.3451110000000028
20
-84.8302520000000015
11
166.0951110000000028
21
-84.8302520000000015
0
LINE
8
BLACK
6
CONTINUOUS
10
166.0951110000000028
20
-84.8302520000000015
11
166.1812149999999804
21
-84.8473789999999894
0
LINE
8
BLACK
6
CONTINUOUS
10
168.7212150000000008
20
-84.8473789999999894
11
168.7942099999999925
21
-84.8961529999999982
0
LINE
8
BLACK
6
CONTINUOUS
10
168.7942099999999925
20
-84.8961529999999982
11
168.8429840000000013
21
-84.9691479999999899
0
LINE
8
BLACK
6
CONTINUOUS
10
168.8429840000000013
20
-84.9691479999999899
11
168.8601109999999892
21
-85.0552519999999959
0
LINE
8
BLACK
6
CONTINUOUS
10
168.8601109999999892
20
-85.0552519999999959
11
168.8601109999999892
21
-85.5052519999999987
0
LINE
8
BLACK
6
CONTINUOUS
10
168.8601109999999892
20
-85.5052519999999987
11
168.8429840000000013
21
-85.5913559999999904
0
LINE
8
BLACK
6
CONTINUOUS
10
168.8429840000000013
20
-85.5913559999999904
11
168.7942099999999925
21
-85.6643509999999964
0
LINE
8
BLACK
6
CONTINUOUS
10
168.7942099999999925
20
-85.6643509999999964
11
168.7212150000000008
21
-85.7131249999999909
0
LINE
8
BLACK
6
CONTINUOUS
10
168.7212150000000008
20
-85.7131249999999909
11
168.6351109999999949
21
-85.730251999999993
0
LINE
8
BLACK
6
CONTINUOUS
10
168.6351109999999949
20
-85.730251999999993
11
167.8851109999999949
21
-85.730251999999993
0
LINE
8
BLACK
6
CONTINUOUS
10
167.8851109999999949
20
-85.730251999999993
11
167.7990069999999889
21
-85.7131249999999909
0
LINE
8
BLACK
6
CONTINUOUS
10
167.7990069999999889
20
-85.7131249999999909
11
167.7260119999999972
21
-85.6643509999999964
0
LINE
8
BLACK
6
CONTINUOUS
10
167.7260119999999972
20
-85.6643509999999964
11
167.6772379999999885
21
-85.5913559999999904
0
LINE
8
BLACK
6
CONTINUOUS
10
167.6772379999999885
20
-85.5913559999999904
11
167.6601110000000006
21
-85.5052519999999987
0
LINE
8
BLACK
6
CONTINUOUS
10
167.6601110000000006
20
-85.5052519999999987
11
167.6601110000000006
21
-85.0552519999999959
0
LINE
8
BLACK
6
CONTINUOUS
10
167.6601110000000006
20
-85.0552519999999959
11
167.6772379999999885
21
-84.9691479999999899
0
LINE
8
BLACK
6
CONTINUOUS
10
167.6772379999999885
20
-84.9691479999999899
11
167.7260119999999972
21
-84.8961529999999982
0
LINE
8
BLACK
6
CONTINUOUS
10
167.7260119999999972
20
-84.8961529999999982
11
167.7990069999999889
21
-84.8473789999999894
0
LINE
8
BLACK
6
CONTINUOUS
10
167.7990069999999889
20
-84.8473789999999894
11
167.8851109999999949
21
-84.8302520000000015
0
LINE
8
BLACK
6
CONTINUOUS
10
167.8851109999999949
20
-84.8302520000000015
11
168.6351109999999949
21
-84.8302520000000015
0
LINE
8
BLACK
6
CONTINUOUS
10
168.6351109999999949
20
-84.8302520000000015
11
168.7212150000000008
21
-84.8473789999999894
0
LINE
8
BLACK
6
CONTINUOUS
10
171.2612149999999929
20
-84.8473789999999894
11
171.3342099999999846
21
-84.8961529999999982
0
LINE
8
BLACK
6
CONTINUOUS
10
171.3342099999999846
20
-84.8961529999999982
11
171.3829839999999933
21
-84.9691479999999899
0
LINE
8
BLACK
6
CONTINUOUS
10
171.3829839999999933
20
-84.9691479999999899
11
171.4001109999999812
21
-85.0552519999999959
0
LINE
8
BLACK
6
CONTINUOUS
10
171.4001109999999812
20
-85.0552519999999959
11
171.4001109999999812
21
-85.5052519999999987
0
LINE
8
BLACK
6
CONTINUOUS
10
171.4001109999999812
20
-85.5052519999999987
11
171.3829839999999933
21
-85.5913559999999904
0
LINE
8
BLACK
6
CONTINUOUS
10
171.3829839999999933
20
-85.5913559999999904
11
171.3342099999999846
21
-85.6643509999999964
0
LINE
8
BLACK
6
CONTINUOUS
10
171.3342099999999846
20
-85.6643509999999964
11
171.2612149999999929
21
-85.7131249999999909
0
LINE
8
BLACK
6
CONTINUOUS
10
171.2612149999999929
20
-85.7131249999999909
11
171.1751109999999869
21
-85.730251999999993
0
LINE
8
BLACK
6
CONTINUOUS
10
171.1751109999999869
20
-85.730251999999993
11
170.4251109999999869
21
-85.730251999999993
0
LINE
8
BLACK
6
CONTINUOUS
10
170.4251109999999869
20
-85.730251999999993
11
170.339006999999981
21
-85.7131249999999909
0
LINE
8
BLACK
6
CONTINUOUS
10
170.339006999999981
20
-85.7131249999999909
11
170.2660119999999893
21
-85.6643509999999964
0
LINE
8
BLACK
6
CONTINUOUS
10
170.2660119999999893
20
-85.6643509999999964
11
170.2172379999999805
21
-85.5913559999999904
0
LINE
8
BLACK
6
CONTINUOUS
10
170.2172379999999805
20
-85.5913559999999904
11
170.2001109999999926
21
-85.5052519999999987
0
LINE
8
BLACK
6
CONTINUOUS
10
170.2001109999999926
20
-85.5052519999999987
11
170.2001109999999926
21
-85.0552519999999959
0
LINE
8
BLACK
6
CONTINUOUS
10
170.2001109999999926
20
-85.0552519999999959
11
170.2172379999999805
21
-84.9691479999999899
0
LINE
8
BLACK
6
CONTINUOUS
10
170.2172379999999805
20
-84.9691479999999899
11
170.2660119999999893
21
-84.8961529999999982
0
LINE
8
BLACK
6
CONTINUOUS
10
170.2660119999999893
20
-84.8961529999999982
11
170.339006999999981
21
-84.8473789999999894
0
LINE
8
BLACK
6
CONTINUOUS
10
170.339006999999981
20
-84.8473789999999894
11
170.4251109999999869
21
-84.8302520000000015
0
LINE
8
BLACK
6
CONTINUOUS
10
170.4251109999999869
20
-84.8302520000000015
11
171.1751109999999869
21
-84.8302520000000015
0
LINE
8
BLACK
6
CONTINUOUS
10
171.1751109999999869
20
-84.8302520000000015
11
171.2612149999999929
21
-84.8473789999999894
0
LINE
8
BLACK
6
CONTINUOUS
10
158.685670999999985
20
-78.5740299999999934
11
158.7667769999999905
21
-78.6282229999999913
0
LINE
8
BLACK
6
CONTINUOUS
10
158.7667769999999905
20
-78.6282229999999913
11
158.8209699999999884
21
-78.7093289999999968
0
LINE
8
BLACK
6
CONTINUOUS
10
158.8209699999999884
20
-78.7093289999999968
11
158.8400000000000034
21
-78.8049999999999926
0
LINE
8
BLACK
6
CONTINUOUS
10
158.8400000000000034
20
-78.8049999999999926
11
158.8400000000000034
21
-79.4799999999999898
0
LINE
8
BLACK
6
CONTINUOUS
10
158.8400000000000034
20
-79.4799999999999898
11
158.8209699999999884
21
-79.5756709999999998
0
LINE
8
BLACK
6
CONTINUOUS
10
158.8209699999999884
20
-79.5756709999999998
11
158.7667769999999905
21
-79.6567769999999911
0
LINE
8
BLACK
6
CONTINUOUS
10
158.7667769999999905
20
-79.6567769999999911
11
158.685670999999985
21
-79.7109700000000032
0
LINE
8
BLACK
6
CONTINUOUS
10
158.685670999999985
20
-79.7109700000000032
11
158.5900000000000034
21
-79.7299999999999898
0
LINE
8
BLACK
6
CONTINUOUS
10
158.5900000000000034
20
-79.7299999999999898
11
157.6399999999999864
21
-79.7299999999999898
0
LINE
8
BLACK
6
CONTINUOUS
10
157.6399999999999864
20
-79.7299999999999898
11
157.5443290000000047
21
-79.7109700000000032
0
LINE
8
BLACK
6
CONTINUOUS
10
157.5443290000000047
20
-79.7109700000000032
11
157.4632229999999993
21
-79.6567769999999911
0
LINE
8
BLACK
6
CONTINUOUS
10
157.4632229999999993
20
-79.6567769999999911
11
157.4090300000000013
21
-79.5756709999999998
0
LINE
8
BLACK
6
CONTINUOUS
10
157.4090300000000013
20
-79.5756709999999998
11
157.3899999999999864
21
-79.4799999999999898
0
LINE
8
BLACK
6
CONTINUOUS
10
157.3899999999999864
20
-79.4799999999999898
11
157.3899999999999864
21
-78.8049999999999926
0
LINE
8
BLACK
6
CONTINUOUS
10
157.3899999999999864
20
-78.8049999999999926
11
157.4090300000000013
21
-78.7093289999999968
0
LINE
8
BLACK
6
CONTINUOUS
10
157.4090300000000013
20
-78.7093289999999968
11
157.4632229999999993
21
-78.6282229999999913
0
LINE
8
BLACK
6
CONTINUOUS
10
157.4632229999999993
20
-78.6282229999999913
11
157.5443290000000047
21
-78.5740299999999934
0
LINE
8
BLACK
6
CONTINUOUS
10
157.5443290000000047
20
-78.5740299999999934
11
157.6399999999999864
21
-78.5549999999999926
0
LINE
8
BLACK
6
CONTINUOUS
10
157.6399999999999864
20
-78.5549999999999926
11
158.5900000000000034
21
-78.5549999999999926
0
LINE
8
BLACK
6
CONTINUOUS
10
158.5900000000000034
20
-78.5549999999999926
11
158.685670999999985
21
-78.5740299999999934
0
LINE
8
BLACK
6
CONTINUOUS
10
161.2256710000000055
20
-78.5740299999999934
11
161.3067769999999825
21
-78.6282229999999913
0
LINE
8
BLACK
6
CONTINUOUS
10
161.3067769999999825
20
-78.6282229999999913
11
161.3609699999999805
21
-78.7093289999999968
0
LINE
8
BLACK
6
CONTINUOUS
10
161.3609699999999805
20
-78.7093289999999968
11
161.3799999999999955
21
-78.8049999999999926
0
LINE
8
BLACK
6
CONTINUOUS
10
161.3799999999999955
20
-78.8049999999999926
11
161.3799999999999955
21
-79.4799999999999898
0
LINE
8
BLACK
6
CONTINUOUS
10
161.3799999999999955
20
-79.4799999999999898
11
161.3609699999999805
21
-79.5756709999999998
0
LINE
8
BLACK
6
CONTINUOUS
10
161.3609699999999805
20
-79.5756709999999998
11
161.3067769999999825
21
-79.6567769999999911
0
LINE
8
BLACK
6
CONTINUOUS
10
161.3067769999999825
20
-79.6567769999999911
11
161.2256710000000055
21
-79.7109700000000032
0
LINE
8
BLACK
6
CONTINUOUS
10
161.2256710000000055
20
-79.7109700000000032
11
161.1299999999999955
21
-79.7299999999999898
0
LINE
8
BLACK
6
CONTINUOUS
10
161.1299999999999955
20
-79.7299999999999898
11
160.1800000000000068
21
-79.7299999999999898
0
LINE
8
BLACK
6
CONTINUOUS
10
160.1800000000000068
20
-79.7299999999999898
11
160.0843289999999968
21
-79.7109700000000032
0
LINE
8
BLACK
6
CONTINUOUS
10
160.0843289999999968
20
-79.7109700000000032
11
160.0032229999999913
21
-79.6567769999999911
0
LINE
8
BLACK
6
CONTINUOUS
10
160.0032229999999913
20
-79.6567769999999911
11
159.9490299999999934
21
-79.5756709999999998
0
LINE
8
BLACK
6
CONTINUOUS
10
159.9490299999999934
20
-79.5756709999999998
11
159.9300000000000068
21
-79.4799999999999898
0
LINE
8
BLACK
6
CONTINUOUS
10
159.9300000000000068
20
-79.4799999999999898
11
159.9300000000000068
21
-78.8049999999999926
0
LINE
8
BLACK
6
CONTINUOUS
10
159.9300000000000068
20
-78.8049999999999926
11
159.9490299999999934
21
-78.7093289999999968
0
LINE
8
BLACK
6
CONTINUOUS
10
159.9490299999999934
20
-78.7093289999999968
11
160.0032229999999913
21
-78.6282229999999913
0
LINE
8
BLACK
6
CONTINUOUS
10
160.0032229999999913
20
-78.6282229999999913
11
160.0843289999999968
21
-78.5740299999999934
0
LINE
8
BLACK
6
CONTINUOUS
10
160.0843289999999968
20
-78.5740299999999934
11
160.1800000000000068
21
-78.5549999999999926
0
LINE
8
BLACK
6
CONTINUOUS
10
160.1800000000000068
20
-78.5549999999999926
11
161.1299999999999955
21
-78.5549999999999926
0
LINE
8
BLACK
6
CONTINUOUS
10
161.1299999999999955
20
-78.5549999999999926
11
161.2256710000000055
21
-78.5740299999999934
0
LINE
8
BLACK
6
CONTINUOUS
10
163.7656709999999975
20
-78.5740299999999934
11
163.846777000000003
21
-78.6282229999999913
0
LINE
8
BLACK
6
CONTINUOUS
10
163.846777000000003
20
-78.6282229999999913
11
163.9009700000000009
21
-78.7093289999999968
0
LINE
8
BLACK
6
CONTINUOUS
10
163.9009700000000009
20
-78.7093289999999968
11
163.9199999999999875
21
-78.8049999999999926
0
LINE
8
BLACK
6
CONTINUOUS
10
163.9199999999999875
20
-78.8049999999999926
11
163.9199999999999875
21
-79.4799999999999898
0
LINE
8
BLACK
6
CONTINUOUS
10
163.9199999999999875
20
-79.4799999999999898
11
163.9009700000000009
21
-79.5756709999999998
0
LINE
8
BLACK
6
CONTINUOUS
10
163.9009700000000009
20
-79.5756709999999998
11
163.846777000000003
21
-79.6567769999999911
0
LINE
8
BLACK
6
CONTINUOUS
10
163.846777000000003
20
-79.6567769999999911
11
163.7656709999999975
21
-79.7109700000000032
0
LINE
8
BLACK
6
CONTINUOUS
10
163.7656709999999975
20
-79.7109700000000032
11
163.6699999999999875
21
-79.7299999999999898
0
LINE
8
BLACK
6
CONTINUOUS
10
163.6699999999999875
20
-79.7299999999999898
11
162.7199999999999989
21
-79.7299999999999898
0
LINE
8
BLACK
6
CONTINUOUS
10
162.7199999999999989
20
-79.7299999999999898
11
162.6243289999999888
21
-79.7109700000000032
0
LINE
8
BLACK
6
CONTINUOUS
10
162.6243289999999888
20
-79.7109700000000032
11
162.5432229999999834
21
-79.6567769999999911
0
LINE
8
BLACK
6
CONTINUOUS
10
162.5432229999999834
20
-79.6567769999999911
11
162.4890299999999854
21
-79.5756709999999998
0
LINE
8
BLACK
6
CONTINUOUS
10
162.4890299999999854
20
-79.5756709999999998
11
162.4699999999999989
21
-79.4799999999999898
0
LINE
8
BLACK
6
CONTINUOUS
10
162.4699999999999989
20
-79.4799999999999898
11
162.4699999999999989
21
-78.8049999999999926
0
LINE
8
BLACK
6
CONTINUOUS
10
162.4699999999999989
20
-78.8049999999999926
11
162.4890299999999854
21
-78.7093289999999968
0
LINE
8
BLACK
6
CONTINUOUS
10
162.4890299999999854
20
-78.7093289999999968
11
162.5432229999999834
21
-78.6282229999999913
0
LINE
8
BLACK
6
CONTINUOUS
10
162.5432229999999834
20
-78.6282229999999913
11
162.6243289999999888
21
-78.5740299999999934
0
LINE
8
BLACK
6
CONTINUOUS
10
162.6243289999999888
20
-78.5740299999999934
11
162.7199999999999989
21
-78.5549999999999926
0
LINE
8
BLACK
6
CONTINUOUS
10
162.7199999999999989
20
-78.5549999999999926
11
163.6699999999999875
21
-78.5549999999999926
0
LINE
8
BLACK
6
CONTINUOUS
10
163.6699999999999875
20
-78.5549999999999926
11
163.7656709999999975
21
-78.5740299999999934
0
LINE
8
BLACK
6
CONTINUOUS
10
166.3056709999999896
20
-78.5740299999999934
11
166.386776999999995
21
-78.6282229999999913
0
LINE
8
BLACK
6
CONTINUOUS
10
166.386776999999995
20
-78.6282229999999913
11
166.440969999999993
21
-78.7093289999999968
0
LINE
8
BLACK
6
CONTINUOUS
10
166.440969999999993
20
-78.7093289999999968
11
166.4599999999999795
21
-78.8049999999999926
0
LINE
8
BLACK
6
CONTINUOUS
10
166.4599999999999795
20
-78.8049999999999926
11
166.4599999999999795
21
-79.4799999999999898
0
LINE
8
BLACK
6
CONTINUOUS
10
166.4599999999999795
20
-79.4799999999999898
11
166.440969999999993
21
-79.5756709999999998
0
LINE
8
BLACK
6
CONTINUOUS
10
166.440969999999993
20
-79.5756709999999998
11
166.386776999999995
21
-79.6567769999999911
0
LINE
8
BLACK
6
CONTINUOUS
10
166.386776999999995
20
-79.6567769999999911
11
166.3056709999999896
21
-79.7109700000000032
0
LINE
8
BLACK
6
CONTINUOUS
10
166.3056709999999896
20
-79.7109700000000032
11
166.2099999999999795
21
-79.7299999999999898
0
LINE
8
BLACK
6
CONTINUOUS
10
166.2099999999999795
20
-79.7299999999999898
11
165.2599999999999909
21
-79.7299999999999898
0
LINE
8
BLACK
6
CONTINUOUS
10
165.2599999999999909
20
-79.7299999999999898
11
165.1643289999999809
21
-79.7109700000000032
0
LINE
8
BLACK
6
CONTINUOUS
10
165.1643289999999809
20
-79.7109700000000032
11
165.0832230000000038
21
-79.6567769999999911
0
LINE
8
BLACK
6
CONTINUOUS
10
165.0832230000000038
20
-79.6567769999999911
11
165.0290300000000059
21
-79.5756709999999998
0
LINE
8
BLACK
6
CONTINUOUS
10
165.0290300000000059
20
-79.5756709999999998
11
165.0099999999999909
21
-79.4799999999999898
0
LINE
8
BLACK
6
CONTINUOUS
10
165.0099999999999909
20
-79.4799999999999898
11
165.0099999999999909
21
-78.8049999999999926
0
LINE
8
BLACK
6
CONTINUOUS
10
165.0099999999999909
20
-78.8049999999999926
11
165.0290300000000059
21
-78.7093289999999968
0
LINE
8
BLACK
6
CONTINUOUS
10
165.0290300000000059
20
-78.7093289999999968
11
165.0832230000000038
21
-78.6282229999999913
0
LINE
8
BLACK
6
CONTINUOUS
10
165.0832230000000038
20
-78.6282229999999913
11
165.1643289999999809
21
-78.5740299999999934
0
LINE
8
BLACK
6
CONTINUOUS
10
165.1643289999999809
20
-78.5740299999999934
11
165.2599999999999909
21
-78.5549999999999926
0
LINE
8
BLACK
6
CONTINUOUS
10
165.2599999999999909
20
-78.5549999999999926
11
166.2099999999999795
21
-78.5549999999999926
0
LINE
8
BLACK
6
CONTINUOUS
10
166.2099999999999795
20
-78.5549999999999926
11
166.3056709999999896
21
-78.5740299999999934
0
LINE
8
BLACK
6
CONTINUOUS
10
168.8456709999999816
20
-78.5740299999999934
11
168.9267769999999871
21
-78.6282229999999913
0
LINE
8
BLACK
6
CONTINUOUS
10
168.9267769999999871
20
-78.6282229999999913
11
168.980969999999985
21
-78.7093289999999968
0
LINE
8
BLACK
6
CONTINUOUS
10
168.980969999999985
20
-78.7093289999999968
11
169.
21
-78.8049999999999926
0
LINE
8
BLACK
6
CONTINUOUS
10
169.
20
-78.8049999999999926
11
169.
21
-79.4799999999999898
0
LINE
8
BLACK
6
CONTINUOUS
10
169.
20
-79.4799999999999898
11
168.980969999999985
21
-79.5756709999999998
0
LINE
8
BLACK
6
CONTINUOUS
10
168.980969999999985
20
-79.5756709999999998
11
168.9267769999999871
21
-79.6567769999999911
0
LINE
8
BLACK
6
CONTINUOUS
10
168.9267769999999871
20
-79.6567769999999911
11
168.8456709999999816
21
-79.7109700000000032
0
LINE
8
BLACK
6
CONTINUOUS
10
168.8456709999999816
20
-79.7109700000000032
11
168.75
21
-79.7299999999999898
0
LINE
8
BLACK
6
CONTINUOUS
10
168.75
20
-79.7299999999999898
11
167.7999999999999829
21
-79.7299999999999898
0
LINE
8
BLACK
6
CONTINUOUS
10
167.7999999999999829
20
-79.7299999999999898
11
167.7043290000000013
21
-79.7109700000000032
0
LINE
8
BLACK
6
CONTINUOUS
10
167.7043290000000013
20
-79.7109700000000032
11
167.6232229999999959
21
-79.6567769999999911
0
LINE
8
BLACK
6
CONTINUOUS
10
167.6232229999999959
20
-79.6567769999999911
11
167.5690299999999979
21
-79.5756709999999998
0
LINE
8
BLACK
6
CONTINUOUS
10
167.5690299999999979
20
-79.5756709999999998
11
167.5499999999999829
21
-79.4799999999999898
0
LINE
8
BLACK
6
CONTINUOUS
10
167.5499999999999829
20
-79.4799999999999898
11
167.5499999999999829
21
-78.8049999999999926
0
LINE
8
BLACK
6
CONTINUOUS
10
167.5499999999999829
20
-78.8049999999999926
11
167.5690299999999979
21
-78.7093289999999968
0
LINE
8
BLACK
6
CONTINUOUS
10
167.5690299999999979
20
-78.7093289999999968
11
167.6232229999999959
21
-78.6282229999999913
0
LINE
8
BLACK
6
CONTINUOUS
10
167.6232229999999959
20
-78.6282229999999913
11
167.7043290000000013
21
-78.5740299999999934
0
LINE
8
BLACK
6
CONTINUOUS
10
167.7043290000000013
20
-78.5740299999999934
11
167.7999999999999829
21
-78.5549999999999926
0
LINE
8
BLACK
6
CONTINUOUS
10
167.7999999999999829
20
-78.5549999999999926
11
168.75
21
-78.5549999999999926
0
LINE
8
BLACK
6
CONTINUOUS
10
168.75
20
-78.5549999999999926
11
168.8456709999999816
21
-78.5740299999999934
0
LINE
8
BLACK
6
CONTINUOUS
10
171.3856710000000021
20
-78.5740299999999934
11
171.4667769999999791
21
-78.6282229999999913
0
LINE
8
BLACK
6
CONTINUOUS
10
171.4667769999999791
20
-78.6282229999999913
11
171.5209700000000055
21
-78.7093289999999968
0
LINE
8
BLACK
6
CONTINUOUS
10
171.5209700000000055
20
-78.7093289999999968
11
171.539999999999992
21
-78.8049999999999926
0
LINE
8
BLACK
6
CONTINUOUS
10
171.539999999999992
20
-78.8049999999999926
11
171.539999999999992
21
-79.4799999999999898
0
LINE
8
BLACK
6
CONTINUOUS
10
171.539999999999992
20
-79.4799999999999898
11
171.5209700000000055
21
-79.5756709999999998
0
LINE
8
BLACK
6
CONTINUOUS
10
171.5209700000000055
20
-79.5756709999999998
11
171.4667769999999791
21
-79.6567769999999911
0
LINE
8
BLACK
6
CONTINUOUS
10
171.4667769999999791
20
-79.6567769999999911
11
171.3856710000000021
21
-79.7109700000000032
0
LINE
8
BLACK
6
CONTINUOUS
10
171.3856710000000021
20
-79.7109700000000032
11
171.289999999999992
21
-79.7299999999999898
0
LINE
8
BLACK
6
CONTINUOUS
10
171.289999999999992
20
-79.7299999999999898
11
170.3400000000000034
21
-79.7299999999999898
0
LINE
8
BLACK
6
CONTINUOUS
10
170.3400000000000034
20
-79.7299999999999898
11
170.2443289999999934
21
-79.7109700000000032
0
LINE
8
BLACK
6
CONTINUOUS
10
170.2443289999999934
20
-79.7109700000000032
11
170.1632229999999879
21
-79.6567769999999911
0
LINE
8
BLACK
6
CONTINUOUS
10
170.1632229999999879
20
-79.6567769999999911
11
170.10902999999999
21
-79.5756709999999998
0
LINE
8
BLACK
6
CONTINUOUS
10
170.10902999999999
20
-79.5756709999999998
11
170.0900000000000034
21
-79.4799999999999898
0
LINE
8
BLACK
6
CONTINUOUS
10
170.0900000000000034
20
-79.4799999999999898
11
170.0900000000000034
21
-78.8049999999999926
0
LINE
8
BLACK
6
CONTINUOUS
10
170.0900000000000034
20
-78.8049999999999926
11
170.10902999999999
21
-78.7093289999999968
0
LINE
8
BLACK
6
CONTINUOUS
10
170.10902999999999
20
-78.7093289999999968
11
170.1632229999999879
21
-78.6282229999999913
0
LINE
8
BLACK
6
CONTINUOUS
10
170.1632229999999879
20
-78.6282229999999913
11
170.2443289999999934
21
-78.5740299999999934
0
LINE
8
BLACK
6
CONTINUOUS
10
170.2443289999999934
20
-78.5740299999999934
11
170.3400000000000034
21
-78.5549999999999926
0
LINE
8
BLACK
6
CONTINUOUS
10
170.3400000000000034
20
-78.5549999999999926
11
171.289999999999992
21
-78.5549999999999926
0
LINE
8
BLACK
6
CONTINUOUS
10
171.289999999999992
20
-78.5549999999999926
11
171.3856710000000021
21
-78.5740299999999934
0
LINE
8
BLACK
6
CONTINUOUS
10
158.685670999999985
20
-76.4990299999999905
11
158.7667769999999905
21
-76.5532230000000027
0
LINE
8
BLACK
6
CONTINUOUS
10
158.7667769999999905
20
-76.5532230000000027
11
158.8209699999999884
21
-76.6343289999999939
0
LINE
8
BLACK
6
CONTINUOUS
10
158.8209699999999884
20
-76.6343289999999939
11
158.8400000000000034
21
-76.7299999999999898
0
LINE
8
BLACK
6
CONTINUOUS
10
158.8400000000000034
20
-76.7299999999999898
11
158.8400000000000034
21
-77.4050000000000011
0
LINE
8
BLACK
6
CONTINUOUS
10
158.8400000000000034
20
-77.4050000000000011
11
158.8209699999999884
21
-77.500670999999997
0
LINE
8
BLACK
6
CONTINUOUS
10
158.8209699999999884
20
-77.500670999999997
11
158.7667769999999905
21
-77.5817770000000024
0
LINE
8
BLACK
6
CONTINUOUS
10
158.7667769999999905
20
-77.5817770000000024
11
158.685670999999985
21
-77.6359700000000004
0
LINE
8
BLACK
6
CONTINUOUS
10
158.685670999999985
20
-77.6359700000000004
11
158.5900000000000034
21
-77.6550000000000011
0
LINE
8
BLACK
6
CONTINUOUS
10
158.5900000000000034
20
-77.6550000000000011
11
157.6399999999999864
21
-77.6550000000000011
0
LINE
8
BLACK
6
CONTINUOUS
10
157.6399999999999864
20
-77.6550000000000011
11
157.5443290000000047
21
-77.6359700000000004
0
LINE
8
BLACK
6
CONTINUOUS
10
157.5443290000000047
20
-77.6359700000000004
11
157.4632229999999993
21
-77.5817770000000024
0
LINE
8
BLACK
6
CONTINUOUS
10
157.4632229999999993
20
-77.5817770000000024
11
157.4090300000000013
21
-77.500670999999997
0
LINE
8
BLACK
6
CONTINUOUS
10
157.4090300000000013
20
-77.500670999999997
11
157.3899999999999864
21
-77.4050000000000011
0
LINE
8
BLACK
6
CONTINUOUS
10
157.3899999999999864
20
-77.4050000000000011
11
157.3899999999999864
21
-76.7299999999999898
0
LINE
8
BLACK
6
CONTINUOUS
10
157.3899999999999864
20
-76.7299999999999898
11
157.4090300000000013
21
-76.6343289999999939
0
LINE
8
BLACK
6
CONTINUOUS
10
157.4090300000000013
20
-76.6343289999999939
11
157.4632229999999993
21
-76.5532230000000027
0
LINE
8
BLACK
6
CONTINUOUS
10
157.4632229999999993
20
-76.5532230000000027
11
157.5443290000000047
21
-76.4990299999999905
0
LINE
8
BLACK
6
CONTINUOUS
10
157.5443290000000047
20
-76.4990299999999905
11
157.6399999999999864
21
-76.4799999999999898
0
LINE
8
BLACK
6
CONTINUOUS
10
157.6399999999999864
20
-76.4799999999999898
11
158.5900000000000034
21
-76.4799999999999898
0
LINE
8
BLACK
6
CONTINUOUS
10
158.5900000000000034
20
-76.4799999999999898
11
158.685670999999985
21
-76.4990299999999905
0
LINE
8
BLACK
6
CONTINUOUS
10
161.2256710000000055
20
-76.4990299999999905
11
161.3067769999999825
21
-76.5532230000000027
0
LINE
8
BLACK
6
CONTINUOUS
10
161.3067769999999825
20
-76.5532230000000027
11
161.3609699999999805
21
-76.6343289999999939
0
LINE
8
BLACK
6
CONTINUOUS
10
161.3609699999999805
20
-76.6343289999999939
11
161.3799999999999955
21
-76.7299999999999898
0
LINE
8
BLACK
6
CONTINUOUS
10
161.3799999999999955
20
-76.7299999999999898
11
161.3799999999999955
21
-77.4050000000000011
0
LINE
8
BLACK
6
CONTINUOUS
10
161.3799999999999955
20
-77.4050000000000011
11
161.3609699999999805
21
-77.500670999999997
0
LINE
8
BLACK
6
CONTINUOUS
10
161.3609699999999805
20
-77.500670999999997
11
161.3067769999999825
21
-77.5817770000000024
0
LINE
8
BLACK
6
CONTINUOUS
10
161.3067769999999825
20
-77.5817770000000024
11
161.2256710000000055
21
-77.6359700000000004
0
LINE
8
BLACK
6
CONTINUOUS
10
161.2256710000000055
20
-77.6359700000000004
11
161.1299999999999955
21
-77.6550000000000011
0
LINE
8
BLACK
6
CONTINUOUS
10
161.1299999999999955
20
-77.6550000000000011
11
160.1800000000000068
21
-77.6550000000000011
0
LINE
8
BLACK
6
CONTINUOUS
10
160.1800000000000068
20
-77.6550000000000011
11
160.0843289999999968
21
-77.6359700000000004
0
LINE
8
BLACK
6
CONTINUOUS
10
160.0843289999999968
20
-77.6359700000000004
11
160.0032229999999913
21
-77.5817770000000024
0
LINE
8
BLACK
6
CONTINUOUS
10
160.0032229999999913
20
-77.5817770000000024
11
159.9490299999999934
21
-77.500670999999997
0
LINE
8
BLACK
6
CONTINUOUS
10
159.9490299999999934
20
-77.500670999999997
11
159.9300000000000068
21
-77.4050000000000011
0
LINE
8
BLACK
6
CONTINUOUS
10
159.9300000000000068
20
-77.4050000000000011
11
159.9300000000000068
21
-76.7299999999999898
0
LINE
8
BLACK
6
CONTINUOUS
10
159.9300000000000068
20
-76.7299999999999898
11
159.9490299999999934
21
-76.6343289999999939
0
LINE
8
BLACK
6
CONTINUOUS
10
159.9490299999999934
20
-76.6343289999999939
11
160.0032229999999913
21
-76.5532230000000027
0
LINE
8
BLACK
6
CONTINUOUS
10
160.0032229999999913
20
-76.5532230000000027
11
160.0843289999999968
21
-76.4990299999999905
0
LINE
8
BLACK
6
CONTINUOUS
10
160.0843289999999968
20
-76.4990299999999905
11
160.1800000000000068
21
-76.4799999999999898
0
LINE
8
BLACK
6
CONTINUOUS
10
160.1800000000000068
20
-76.4799999999999898
11
161.1299999999999955
21
-76.4799999999999898
0
LINE
8
BLACK
6
CONTINUOUS
10
161.1299999999999955
20
-76.4799999999999898
11
161.2256710000000055
21
-76.4990299999999905
0
LINE
8
BLACK
6
CONTINUOUS
10
163.7656709999999975
20
-76.4990299999999905
11
163.846777000000003
21
-76.5532230000000027
0
LINE
8
BLACK
6
CONTINUOUS
10
163.846777000000003
20
-76.5532230000000027
11
163.9009700000000009
21
-76.6343289999999939
0
LINE
8
BLACK
6
CONTINUOUS
10
163.9009700000000009
20
-76.6343289999999939
11
163.9199999999999875
21
-76.7299999999999898
0
LINE
8
BLACK
6
CONTINUOUS
10
163.9199999999999875
20
-76.7299999999999898
11
163.9199999999999875
21
-77.4050000000000011
0
LINE
8
BLACK
6
CONTINUOUS
10
163.9199999999999875
20
-77.4050000000000011
11
163.9009700000000009
21
-77.500670999999997
0
LINE
8
BLACK
6
CONTINUOUS
10
163.9009700000000009
20
-77.500670999999997
11
163.846777000000003
21
-77.5817770000000024
0
LINE
8
BLACK
6
CONTINUOUS
10
163.846777000000003
20
-77.5817770000000024
11
163.7656709999999975
21
-77.6359700000000004
0
LINE
8
BLACK
6
CONTINUOUS
10
163.7656709999999975
20
-77.6359700000000004
11
163.6699999999999875
21
-77.6550000000000011
0
LINE
8
BLACK
6
CONTINUOUS
10
163.6699999999999875
20
-77.6550000000000011
11
162.7199999999999989
21
-77.6550000000000011
0
LINE
8
BLACK
6
CONTINUOUS
10
162.7199999999999989
20
-77.6550000000000011
11
162.6243289999999888
21
-77.6359700000000004
0
LINE
8
BLACK
6
CONTINUOUS
10
162.6243289999999888
20
-77.6359700000000004
11
162.5432229999999834
21
-77.5817770000000024
0
LINE
8
BLACK
6
CONTINUOUS
10
162.5432229999999834
20
-77.5817770000000024
11
162.4890299999999854
21
-77.500670999999997
0
LINE
8
BLACK
6
CONTINUOUS
10
162.4890299999999854
20
-77.500670999999997
11
162.4699999999999989
21
-77.4050000000000011
0
LINE
8
BLACK
6
CONTINUOUS
10
162.4699999999999989
20
-77.4050000000000011
11
162.4699999999999989
21
-76.7299999999999898
0
LINE
8
BLACK
6
CONTINUOUS
10
162.4699999999999989
20
-76.7299999999999898
11
162.4890299999999854
21
-76.6343289999999939
0
LINE
8
BLACK
6
CONTINUOUS
10
162.4890299999999854
20
-76.6343289999999939
11
162.5432229999999834
21
-76.5532230000000027
0
LINE
8
BLACK
6
CONTINUOUS
10
162.5432229999999834
20
-76.5532230000000027
11
162.6243289999999888
21
-76.4990299999999905
0
LINE
8
BLACK
6
CONTINUOUS
10
162.6243289999999888
20
-76.4990299999999905
11
162.7199999999999989
21
-76.4799999999999898
0
LINE
8
BLACK
6
CONTINUOUS
10
162.7199999999999989
20
-76.4799999999999898
11
163.6699999999999875
21
-76.4799999999999898
0
LINE
8
BLACK
6
CONTINUOUS
10
163.6699999999999875
20
-76.4799999999999898
11
163.7656709999999975
21
-76.4990299999999905
0
LINE
8
BLACK
6
CONTINUOUS
10
166.3056709999999896
20
-76.4990299999999905
11
166.386776999999995
21
-76.5532230000000027
0
LINE
8
BLACK
6
CONTINUOUS
10
166.386776999999995
20
-76.5532230000000027
11
166.440969999999993
21
-76.6343289999999939
0
LINE
8
BLACK
6
CONTINUOUS
10
166.440969999999993
20
-76.6343289999999939
11
166.4599999999999795
21
-76.7299999999999898
0
LINE
8
BLACK
6
CONTINUOUS
10
166.4599999999999795
20
-76.7299999999999898
11
166.4599999999999795
21
-77.4050000000000011
0
LINE
8
BLACK
6
CONTINUOUS
10
166.4599999999999795
20
-77.4050000000000011
11
166.440969999999993
21
-77.500670999999997
0
LINE
8
BLACK
6
CONTINUOUS
10
166.440969999999993
20
-77.500670999999997
11
166.386776999999995
21
-77.5817770000000024
0
LINE
8
BLACK
6
CONTINUOUS
10
166.386776999999995
20
-77.5817770000000024
11
166.3056709999999896
21
-77.6359700000000004
0
LINE
8
BLACK
6
CONTINUOUS
10
166.3056709999999896
20
-77.6359700000000004
11
166.2099999999999795
21
-77.6550000000000011
0
LINE
8
BLACK
6
CONTINUOUS
10
166.2099999999999795
20
-77.6550000000000011
11
165.2599999999999909
21
-77.6550000000000011
0
LINE
8
BLACK
6
CONTINUOUS
10
165.2599999999999909
20
-77.6550000000000011
11
165.1643289999999809
21
-77.6359700000000004
0
LINE
8
BLACK
6
CONTINUOUS
10
165.1643289999999809
20
-77.6359700000000004
11
165.0832230000000038
21
-77.5817770000000024
0
LINE
8
BLACK
6
CONTINUOUS
10
165.0832230000000038
20
-77.5817770000000024
11
165.0290300000000059
21
-77.500670999999997
0
LINE
8
BLACK
6
CONTINUOUS
10
165.0290300000000059
20
-77.500670999999997
11
165.0099999999999909
21
-77.4050000000000011
0
LINE
8
BLACK
6
CONTINUOUS
10
165.0099999999999909
20
-77.4050000000000011
11
165.0099999999999909
21
-76.7299999999999898
0
LINE
8
BLACK
6
CONTINUOUS
10
165.0099999999999909
20
-76.7299999999999898
11
165.0290300000000059
21
-76.6343289999999939
0
LINE
8
BLACK
6
CONTINUOUS
10
165.0290300000000059
20
-76.6343289999999939
11
165.0832230000000038
21
-76.5532230000000027
0
LINE
8
BLACK
6
CONTINUOUS
10
165.0832230000000038
20
-76.5532230000000027
11
165.1643289999999809
21
-76.4990299999999905
0
LINE
8
BLACK
6
CONTINUOUS
10
165.1643289999999809
20
-76.4990299999999905
11
165.2599999999999909
21
-76.4799999999999898
0
LINE
8
BLACK
6
CONTINUOUS
10
165.2599999999999909
20
-76.4799999999999898
11
166.2099999999999795
21
-76.4799999999999898
0
LINE
8
BLACK
6
CONTINUOUS
10
166.2099999999999795
20
-76.4799999999999898
11
166.3056709999999896
21
-76.4990299999999905
0
LINE
8
BLACK
6
CONTINUOUS
10
168.8456709999999816
20
-76.4990299999999905
11
168.9267769999999871
21
-76.5532230000000027
0
LINE
8
BLACK
6
CONTINUOUS
10
168.9267769999999871
20
-76.5532230000000027
11
168.980969999999985
21
-76.6343289999999939
0
LINE
8
BLACK
6
CONTINUOUS
10
168.980969999999985
20
-76.6343289999999939
11
169.
21
-76.7299999999999898
0
LINE
8
BLACK
6
CONTINUOUS
10
169.
20
-76.7299999999999898
11
169.
21
-77.4050000000000011
0
LINE
8
BLACK
6
CONTINUOUS
10
169.
20
-77.4050000000000011
11
168.980969999999985
21
-77.500670999999997
0
LINE
8
BLACK
6
CONTINUOUS
10
168.980969999999985
20
-77.500670999999997
11
168.9267769999999871
21
-77.5817770000000024
0
LINE
8
BLACK
6
CONTINUOUS
10
168.9267769999999871
20
-77.5817770000000024
11
168.8456709999999816
21
-77.6359700000000004
0
LINE
8
BLACK
6
CONTINUOUS
10
168.8456709999999816
20
-77.6359700000000004
11
168.75
21
-77.6550000000000011
0
LINE
8
BLACK
6
CONTINUOUS
10
168.75
20
-77.6550000000000011
11
167.7999999999999829
21
-77.6550000000000011
0
LINE
8
BLACK
6
CONTINUOUS
10
167.7999999999999829
20
-77.6550000000000011
11
167.7043290000000013
21
-77.6359700000000004
0
LINE
8
BLACK
6
CONTINUOUS
10
167.7043290000000013
20
-77.6359700000000004
11
167.6232229999999959
21
-77.5817770000000024
0
LINE
8
BLACK
6
CONTINUOUS
10
167.6232229999999959
20
-77.5817770000000024
11
167.5690299999999979
21
-77.500670999999997
0
LINE
8
BLACK
6
CONTINUOUS
10
167.5690299999999979
20
-77.500670999999997
11
167.5499999999999829
21
-77.4050000000000011
0
LINE
8
BLACK
6
CONTINUOUS
10
167.5499999999999829
20
-77.4050000000000011
11
167.5499999999999829
21
-76.7299999999999898
0
LINE
8
BLACK
6
CONTINUOUS
10
167.5499999999999829
20
-76.7299999999999898
11
167.5690299999999979
21
-76.6343289999999939
0
LINE
8
BLACK
6
CONTINUOUS
10
167.5690299999999979
20
-76.6343289999999939
11
167.6232229999999959
21
-76.5532230000000027
0
LINE
8
BLACK
6
CONTINUOUS
10
167.6232229999999959
20
-76.5532230000000027
11
167.7043290000000013
21
-76.4990299999999905
0
LINE
8
BLACK
6
CONTINUOUS
10
167.7043290000000013
20
-76.4990299999999905
11
167.7999999999999829
21
-76.4799999999999898
0
LINE
8
BLACK
6
CONTINUOUS
10
167.7999999999999829
20
-76.4799999999999898
11
168.75
21
-76.4799999999999898
0
LINE
8
BLACK
6
CONTINUOUS
10
168.75
20
-76.4799999999999898
11
168.8456709999999816
21
-76.4990299999999905
0
LINE
8
BLACK
6
CONTINUOUS
10
171.3856710000000021
20
-76.4990299999999905
11
171.4667769999999791
21
-76.5532230000000027
0
LINE
8
BLACK
6
CONTINUOUS
10
171.4667769999999791
20
-76.5532230000000027
11
171.5209700000000055
21
-76.6343289999999939
0
LINE
8
BLACK
6
CONTINUOUS
10
171.5209700000000055
20
-76.6343289999999939
11
171.539999999999992
21
-76.7299999999999898
0
LINE
8
BLACK
6
CONTINUOUS
10
171.539999999999992
20
-76.7299999999999898
11
171.539999999999992
21
-77.4050000000000011
0
LINE
8
BLACK
6
CONTINUOUS
10
171.539999999999992
20
-77.4050000000000011
11
171.5209700000000055
21
-77.500670999999997
0
LINE
8
BLACK
6
CONTINUOUS
10
171.5209700000000055
20
-77.500670999999997
11
171.4667769999999791
21
-77.5817770000000024
0
LINE
8
BLACK
6
CONTINUOUS
10
171.4667769999999791
20
-77.5817770000000024
11
171.3856710000000021
21
-77.6359700000000004
0
LINE
8
BLACK
6
CONTINUOUS
10
171.3856710000000021
20
-77.6359700000000004
11
171.289999999999992
21
-77.6550000000000011
0
LINE
8
BLACK
6
CONTINUOUS
10
171.289999999999992
20
-77.6550000000000011
11
170.3400000000000034
21
-77.6550000000000011
0
LINE
8
BLACK
6
CONTINUOUS
10
170.3400000000000034
20
-77.6550000000000011
11
170.2443289999999934
21
-77.6359700000000004
0
LINE
8
BLACK
6
CONTINUOUS
10
170.2443289999999934
20
-77.6359700000000004
11
170.1632229999999879
21
-77.5817770000000024
0
LINE
8
BLACK
6
CONTINUOUS
10
170.1632229999999879
20
-77.5817770000000024
11
170.10902999999999
21
-77.500670999999997
0
LINE
8
BLACK
6
CONTINUOUS
10
170.10902999999999
20
-77.500670999999997
11
170.0900000000000034
21
-77.4050000000000011
0
LINE
8
BLACK
6
CONTINUOUS
10
170.0900000000000034
20
-77.4050000000000011
11
170.0900000000000034
21
-76.7299999999999898
0
LINE
8
BLACK
6
CONTINUOUS
10
170.0900000000000034
20
-76.7299999999999898
11
170.10902999999999
21
-76.6343289999999939
0
LINE
8
BLACK
6
CONTINUOUS
10
170.10902999999999
20
-76.6343289999999939
11
170.1632229999999879
21
-76.5532230000000027
0
LINE
8
BLACK
6
CONTINUOUS
10
170.1632229999999879
20
-76.5532230000000027
11
170.2443289999999934
21
-76.4990299999999905
0
LINE
8
BLACK
6
CONTINUOUS
10
170.2443289999999934
20
-76.4990299999999905
11
170.3400000000000034
21
-76.4799999999999898
0
LINE
8
BLACK
6
CONTINUOUS
10
170.3400000000000034
20
-76.4799999999999898
11
171.289999999999992
21
-76.4799999999999898
0
LINE
8
BLACK
6
CONTINUOUS
10
171.289999999999992
20
-76.4799999999999898
11
171.3856710000000021
21
-76.4990299999999905
0
LINE
8
BLACK
6
CONTINUOUS
10
171.2761040000000037
20
-31.1147919999999978
11
171.3490989999999954
21
-31.1635659999999994
0
LINE
8
BLACK
6
CONTINUOUS
10
171.3490989999999954
20
-31.1635659999999994
11
171.3978730000000041
21
-31.2365609999999982
0
LINE
8
BLACK
6
CONTINUOUS
10
171.3978730000000041
20
-31.2365609999999982
11
171.414999999999992
21
-31.3226649999999971
0
LINE
8
BLACK
6
CONTINUOUS
10
171.414999999999992
20
-31.3226649999999971
11
171.414999999999992
21
-31.7726649999999999
0
LINE
8
BLACK
6
CONTINUOUS
10
171.414999999999992
20
-31.7726649999999999
11
171.3978730000000041
21
-31.8587689999999988
0
LINE
8
BLACK
6
CONTINUOUS
10
171.3978730000000041
20
-31.8587689999999988
11
171.3490989999999954
21
-31.9317639999999976
0
LINE
8
BLACK
6
CONTINUOUS
10
171.3490989999999954
20
-31.9317639999999976
11
171.2761040000000037
21
-31.9805379999999992
0
LINE
8
BLACK
6
CONTINUOUS
10
171.2761040000000037
20
-31.9805379999999992
11
171.1899999999999977
21
-31.9976649999999978
0
LINE
8
BLACK
6
CONTINUOUS
10
171.1899999999999977
20
-31.9976649999999978
11
170.4399999999999977
21
-31.9976649999999978
0
LINE
8
BLACK
6
CONTINUOUS
10
170.4399999999999977
20
-31.9976649999999978
11
170.3538959999999918
21
-31.9805379999999992
0
LINE
8
BLACK
6
CONTINUOUS
10
170.3538959999999918
20
-31.9805379999999992
11
170.2809010000000001
21
-31.9317639999999976
0
LINE
8
BLACK
6
CONTINUOUS
10
170.2809010000000001
20
-31.9317639999999976
11
170.2321269999999913
21
-31.8587689999999988
0
LINE
8
BLACK
6
CONTINUOUS
10
170.2321269999999913
20
-31.8587689999999988
11
170.2150000000000034
21
-31.7726649999999999
0
LINE
8
BLACK
6
CONTINUOUS
10
170.2150000000000034
20
-31.7726649999999999
11
170.2150000000000034
21
-31.3226649999999971
0
LINE
8
BLACK
6
CONTINUOUS
10
170.2150000000000034
20
-31.3226649999999971
11
170.2321269999999913
21
-31.2365609999999982
0
LINE
8
BLACK
6
CONTINUOUS
10
170.2321269999999913
20
-31.2365609999999982
11
170.2809010000000001
21
-31.1635659999999994
0
LINE
8
BLACK
6
CONTINUOUS
10
170.2809010000000001
20
-31.1635659999999994
11
170.3538959999999918
21
-31.1147919999999978
0
LINE
8
BLACK
6
CONTINUOUS
10
170.3538959999999918
20
-31.1147919999999978
11
170.4399999999999977
21
-31.0976649999999992
0
LINE
8
BLACK
6
CONTINUOUS
10
170.4399999999999977
20
-31.0976649999999992
11
171.1899999999999977
21
-31.0976649999999992
0
LINE
8
BLACK
6
CONTINUOUS
10
171.1899999999999977
20
-31.0976649999999992
11
171.2761040000000037
21
-31.1147919999999978
0
LINE
8
BLACK
6
CONTINUOUS
10
166.1760259999999789
20
-31.0901229999999984
11
166.249020999999999
21
-31.138897
0
LINE
8
BLACK
6
CONTINUOUS
10
166.249020999999999
20
-31.138897
11
166.2977949999999794
21
-31.2118919999999989
0
LINE
8
BLACK
6
CONTINUOUS
10
166.2977949999999794
20
-31.2118919999999989
11
166.3149219999999957
21
-31.2979959999999977
0
LINE
8
BLACK
6
CONTINUOUS
10
166.3149219999999957
20
-31.2979959999999977
11
166.3149219999999957
21
-31.747995999999997
0
LINE
8
BLACK
6
CONTINUOUS
10
166.3149219999999957
20
-31.747995999999997
11
166.2977949999999794
21
-31.8340999999999994
0
LINE
8
BLACK
6
CONTINUOUS
10
166.2977949999999794
20
-31.8340999999999994
11
166.249020999999999
21
-31.9070949999999982
0
LINE
8
BLACK
6
CONTINUOUS
10
166.249020999999999
20
-31.9070949999999982
11
166.1760259999999789
21
-31.9558689999999999
0
LINE
8
BLACK
6
CONTINUOUS
10
166.1760259999999789
20
-31.9558689999999999
11
166.0899220000000014
21
-31.9729959999999984
0
LINE
8
BLACK
6
CONTINUOUS
10
166.0899220000000014
20
-31.9729959999999984
11
165.3399220000000014
21
-31.9729959999999984
0
LINE
8
BLACK
6
CONTINUOUS
10
165.3399220000000014
20
-31.9729959999999984
11
165.2538179999999954
21
-31.9558689999999999
0
LINE
8
BLACK
6
CONTINUOUS
10
165.2538179999999954
20
-31.9558689999999999
11
165.1808230000000037
21
-31.9070949999999982
0
LINE
8
BLACK
6
CONTINUOUS
10
165.1808230000000037
20
-31.9070949999999982
11
165.132048999999995
21
-31.8340999999999994
0
LINE
8
BLACK
6
CONTINUOUS
10
165.132048999999995
20
-31.8340999999999994
11
165.1149219999999787
21
-31.747995999999997
0
LINE
8
BLACK
6
CONTINUOUS
10
165.1149219999999787
20
-31.747995999999997
11
165.1149219999999787
21
-31.2979959999999977
0
LINE
8
BLACK
6
CONTINUOUS
10
165.1149219999999787
20
-31.2979959999999977
11
165.132048999999995
21
-31.2118919999999989
0
LINE
8
BLACK
6
CONTINUOUS
10
165.132048999999995
20
-31.2118919999999989
11
165.1808230000000037
21
-31.138897
0
LINE
8
BLACK
6
CONTINUOUS
10
165.1808230000000037
20
-31.138897
11
165.2538179999999954
21
-31.0901229999999984
0
LINE
8
BLACK
6
CONTINUOUS
10
165.2538179999999954
20
-31.0901229999999984
11
165.3399220000000014
21
-31.0729959999999998
0
LINE
8
BLACK
6
CONTINUOUS
10
165.3399220000000014
20
-31.0729959999999998
11
166.0899220000000014
21
-31.0729959999999998
0
LINE
8
BLACK
6
CONTINUOUS
10
166.0899220000000014
20
-31.0729959999999998
11
166.1760259999999789
21
-31.0901229999999984
0
LINE
8
BLACK
6
CONTINUOUS
10
149.4464289999999949
20
-31.0739969999999985
11
149.5194239999999866
21
-31.1227710000000002
0
LINE
8
BLACK
6
CONTINUOUS
10
149.5194239999999866
20
-31.1227710000000002
11
149.5681979999999953
21
-31.195765999999999
0
LINE
8
BLACK
6
CONTINUOUS
10
149.5681979999999953
20
-31.195765999999999
11
149.5853249999999832
21
-31.2818699999999978
0
LINE
8
BLACK
6
CONTINUOUS
10
149.5853249999999832
20
-31.2818699999999978
11
149.5853249999999832
21
-31.7318699999999971
0
LINE
8
BLACK
6
CONTINUOUS
10
149.5853249999999832
20
-31.7318699999999971
11
149.5681979999999953
21
-31.8179739999999995
0
LINE
8
BLACK
6
CONTINUOUS
10
149.5681979999999953
20
-31.8179739999999995
11
149.5194239999999866
21
-31.8909689999999983
0
LINE
8
BLACK
6
CONTINUOUS
10
149.5194239999999866
20
-31.8909689999999983
11
149.4464289999999949
21
-31.939743
0
LINE
8
BLACK
6
CONTINUOUS
10
149.4464289999999949
20
-31.939743
11
149.3603249999999889
21
-31.9568699999999986
0
LINE
8
BLACK
6
CONTINUOUS
10
149.3603249999999889
20
-31.9568699999999986
11
148.6103249999999889
21
-31.9568699999999986
0
LINE
8
BLACK
6
CONTINUOUS
10
148.6103249999999889
20
-31.9568699999999986
11
148.524220999999983
21
-31.939743
0
LINE
8
BLACK
6
CONTINUOUS
10
148.524220999999983
20
-31.939743
11
148.4512259999999912
21
-31.8909689999999983
0
LINE
8
BLACK
6
CONTINUOUS
10
148.4512259999999912
20
-31.8909689999999983
11
148.4024519999999825
21
-31.8179739999999995
0
LINE
8
BLACK
6
CONTINUOUS
10
148.4024519999999825
20
-31.8179739999999995
11
148.3853249999999946
21
-31.7318699999999971
0
LINE
8
BLACK
6
CONTINUOUS
10
148.3853249999999946
20
-31.7318699999999971
11
148.3853249999999946
21
-31.2818699999999978
0
LINE
8
BLACK
6
CONTINUOUS
10
148.3853249999999946
20
-31.2818699999999978
11
148.4024519999999825
21
-31.195765999999999
0
LINE
8
BLACK
6
CONTINUOUS
10
148.4024519999999825
20
-31.195765999999999
11
148.4512259999999912
21
-31.1227710000000002
0
LINE
8
BLACK
6
CONTINUOUS
10
148.4512259999999912
20
-31.1227710000000002
11
148.524220999999983
21
-31.0739969999999985
0
LINE
8
BLACK
6
CONTINUOUS
10
148.524220999999983
20
-31.0739969999999985
11
148.6103249999999889
21
-31.05687
0
LINE
8
BLACK
6
CONTINUOUS
10
148.6103249999999889
20
-31.05687
11
149.3603249999999889
21
-31.05687
0
LINE
8
BLACK
6
CONTINUOUS
10
149.3603249999999889
20
-31.05687
11
149.4464289999999949
21
-31.0739969999999985
0
LINE
8
BLACK
6
CONTINUOUS
10
153.4961040000000025
20
-31.0621270000000003
11
153.5690989999999942
21
-31.1109009999999984
0
LINE
8
BLACK
6
CONTINUOUS
10
153.5690989999999942
20
-31.1109009999999984
11
153.617873000000003
21
-31.1838959999999972
0
LINE
8
BLACK
6
CONTINUOUS
10
153.617873000000003
20
-31.1838959999999972
11
153.6349999999999909
21
-31.2699999999999996
0
LINE
8
BLACK
6
CONTINUOUS
10
153.6349999999999909
20
-31.2699999999999996
11
153.6349999999999909
21
-31.7199999999999989
0
LINE
8
BLACK
6
CONTINUOUS
10
153.6349999999999909
20
-31.7199999999999989
11
153.617873000000003
21
-31.8061039999999977
0
LINE
8
BLACK
6
CONTINUOUS
10
153.617873000000003
20
-31.8061039999999977
11
153.5690989999999942
21
-31.8790990000000001
0
LINE
8
BLACK
6
CONTINUOUS
10
153.5690989999999942
20
-31.8790990000000001
11
153.4961040000000025
21
-31.9278729999999982
0
LINE
8
BLACK
6
CONTINUOUS
10
153.4961040000000025
20
-31.9278729999999982
11
153.4099999999999966
21
-31.9450000000000003
0
LINE
8
BLACK
6
CONTINUOUS
10
153.4099999999999966
20
-31.9450000000000003
11
152.6599999999999966
21
-31.9450000000000003
0
LINE
8
BLACK
6
CONTINUOUS
10
152.6599999999999966
20
-31.9450000000000003
11
152.5738959999999906
21
-31.9278729999999982
0
LINE
8
BLACK
6
CONTINUOUS
10
152.5738959999999906
20
-31.9278729999999982
11
152.5009009999999989
21
-31.8790990000000001
0
LINE
8
BLACK
6
CONTINUOUS
10
152.5009009999999989
20
-31.8790990000000001
11
152.4521269999999902
21
-31.8061039999999977
0
LINE
8
BLACK
6
CONTINUOUS
10
152.4521269999999902
20
-31.8061039999999977
11
152.4350000000000023
21
-31.7199999999999989
0
LINE
8
BLACK
6
CONTINUOUS
10
152.4350000000000023
20
-31.7199999999999989
11
152.4350000000000023
21
-31.2699999999999996
0
LINE
8
BLACK
6
CONTINUOUS
10
152.4350000000000023
20
-31.2699999999999996
11
152.4521269999999902
21
-31.1838959999999972
0
LINE
8
BLACK
6
CONTINUOUS
10
152.4521269999999902
20
-31.1838959999999972
11
152.5009009999999989
21
-31.1109009999999984
0
LINE
8
BLACK
6
CONTINUOUS
10
152.5009009999999989
20
-31.1109009999999984
11
152.5738959999999906
21
-31.0621270000000003
0
LINE
8
BLACK
6
CONTINUOUS
10
152.5738959999999906
20
-31.0621270000000003
11
152.6599999999999966
21
-31.0449999999999982
0
LINE
8
BLACK
6
CONTINUOUS
10
152.6599999999999966
20
-31.0449999999999982
11
153.4099999999999966
21
-31.0449999999999982
0
LINE
8
BLACK
6
CONTINUOUS
10
153.4099999999999966
20
-31.0449999999999982
11
153.4961040000000025
21
-31.0621270000000003
0
LINE
8
BLACK
6
CONTINUOUS
10
158.5761039999999866
20
-31.0621270000000003
11
158.6490990000000068
21
-31.1109009999999984
0
LINE
8
BLACK
6
CONTINUOUS
10
158.6490990000000068
20
-31.1109009999999984
11
158.6978729999999871
21
-31.1838959999999972
0
LINE
8
BLACK
6
CONTINUOUS
10
158.6978729999999871
20
-31.1838959999999972
11
158.7150000000000034
21
-31.2699999999999996
0
LINE
8
BLACK
6
CONTINUOUS
10
158.7150000000000034
20
-31.2699999999999996
11
158.7150000000000034
21
-31.7199999999999989
0
LINE
8
BLACK
6
CONTINUOUS
10
158.7150000000000034
20
-31.7199999999999989
11
158.6978729999999871
21
-31.8061039999999977
0
LINE
8
BLACK
6
CONTINUOUS
10
158.6978729999999871
20
-31.8061039999999977
11
158.6490990000000068
21
-31.8790990000000001
0
LINE
8
BLACK
6
CONTINUOUS
10
158.6490990000000068
20
-31.8790990000000001
11
158.5761039999999866
21
-31.9278729999999982
0
LINE
8
BLACK
6
CONTINUOUS
10
158.5761039999999866
20
-31.9278729999999982
11
158.4899999999999807
21
-31.9450000000000003
0
LINE
8
BLACK
6
CONTINUOUS
10
158.4899999999999807
20
-31.9450000000000003
11
157.7399999999999807
21
-31.9450000000000003
0
LINE
8
BLACK
6
CONTINUOUS
10
157.7399999999999807
20
-31.9450000000000003
11
157.6538960000000031
21
-31.9278729999999982
0
LINE
8
BLACK
6
CONTINUOUS
10
157.6538960000000031
20
-31.9278729999999982
11
157.580900999999983
21
-31.8790990000000001
0
LINE
8
BLACK
6
CONTINUOUS
10
157.580900999999983
20
-31.8790990000000001
11
157.5321270000000027
21
-31.8061039999999977
0
LINE
8
BLACK
6
CONTINUOUS
10
157.5321270000000027
20
-31.8061039999999977
11
157.5149999999999864
21
-31.7199999999999989
0
LINE
8
BLACK
6
CONTINUOUS
10
157.5149999999999864
20
-31.7199999999999989
11
157.5149999999999864
21
-31.2699999999999996
0
LINE
8
BLACK
6
CONTINUOUS
10
157.5149999999999864
20
-31.2699999999999996
11
157.5321270000000027
21
-31.1838959999999972
0
LINE
8
BLACK
6
CONTINUOUS
10
157.5321270000000027
20
-31.1838959999999972
11
157.580900999999983
21
-31.1109009999999984
0
LINE
8
BLACK
6
CONTINUOUS
10
157.580900999999983
20
-31.1109009999999984
11
157.6538960000000031
21
-31.0621270000000003
0
LINE
8
BLACK
6
CONTINUOUS
10
157.6538960000000031
20
-31.0621270000000003
11
157.7399999999999807
21
-31.0449999999999982
0
LINE
8
BLACK
6
CONTINUOUS
10
157.7399999999999807
20
-31.0449999999999982
11
158.4899999999999807
21
-31.0449999999999982
0
LINE
8
BLACK
6
CONTINUOUS
10
158.4899999999999807
20
-31.0449999999999982
11
158.5761039999999866
21
-31.0621270000000003
0
LINE
8
BLACK
6
CONTINUOUS
10
161.1044369999999901
20
-31.0621270000000003
11
161.1774319999999818
21
-31.1109009999999984
0
LINE
8
BLACK
6
CONTINUOUS
10
161.1774319999999818
20
-31.1109009999999984
11
161.2262059999999906
21
-31.1838959999999972
0
LINE
8
BLACK
6
CONTINUOUS
10
161.2262059999999906
20
-31.1838959999999972
11
161.2433330000000069
21
-31.2699999999999996
0
LINE
8
BLACK
6
CONTINUOUS
10
161.2433330000000069
20
-31.2699999999999996
11
161.2433330000000069
21
-31.7199999999999989
0
LINE
8
BLACK
6
CONTINUOUS
10
161.2433330000000069
20
-31.7199999999999989
11
161.2262059999999906
21
-31.8061039999999977
0
LINE
8
BLACK
6
CONTINUOUS
10
161.2262059999999906
20
-31.8061039999999977
11
161.1774319999999818
21
-31.8790990000000001
0
LINE
8
BLACK
6
CONTINUOUS
10
161.1774319999999818
20
-31.8790990000000001
11
161.1044369999999901
21
-31.9278729999999982
0
LINE
8
BLACK
6
CONTINUOUS
10
161.1044369999999901
20
-31.9278729999999982
11
161.0183329999999842
21
-31.9450000000000003
0
LINE
8
BLACK
6
CONTINUOUS
10
161.0183329999999842
20
-31.9450000000000003
11
160.2683329999999842
21
-31.9450000000000003
0
LINE
8
BLACK
6
CONTINUOUS
10
160.2683329999999842
20
-31.9450000000000003
11
160.1822290000000066
21
-31.9278729999999982
0
LINE
8
BLACK
6
CONTINUOUS
10
160.1822290000000066
20
-31.9278729999999982
11
160.1092339999999865
21
-31.8790990000000001
0
LINE
8
BLACK
6
CONTINUOUS
10
160.1092339999999865
20
-31.8790990000000001
11
160.0604600000000062
21
-31.8061039999999977
0
LINE
8
BLACK
6
CONTINUOUS
10
160.0604600000000062
20
-31.8061039999999977
11
160.0433329999999899
21
-31.7199999999999989
0
LINE
8
BLACK
6
CONTINUOUS
10
160.0433329999999899
20
-31.7199999999999989
11
160.0433329999999899
21
-31.2699999999999996
0
LINE
8
BLACK
6
CONTINUOUS
10
160.0433329999999899
20
-31.2699999999999996
11
160.0604600000000062
21
-31.1838959999999972
0
LINE
8
BLACK
6
CONTINUOUS
10
160.0604600000000062
20
-31.1838959999999972
11
160.1092339999999865
21
-31.1109009999999984
0
LINE
8
BLACK
6
CONTINUOUS
10
160.1092339999999865
20
-31.1109009999999984
11
160.1822290000000066
21
-31.0621270000000003
0
LINE
8
BLACK
6
CONTINUOUS
10
160.1822290000000066
20
-31.0621270000000003
11
160.2683329999999842
21
-31.0449999999999982
0
LINE
8
BLACK
6
CONTINUOUS
10
160.2683329999999842
20
-31.0449999999999982
11
161.0183329999999842
21
-31.0449999999999982
0
LINE
8
BLACK
6
CONTINUOUS
10
161.0183329999999842
20
-31.0449999999999982
11
161.1044369999999901
21
-31.0621270000000003
0
LINE
8
BLACK
6
CONTINUOUS
10
163.6561039999999991
20
-31.0621270000000003
11
163.7290989999999908
21
-31.1109009999999984
0
LINE
8
BLACK
6
CONTINUOUS
10
163.7290989999999908
20
-31.1109009999999984
11
163.7778729999999996
21
-31.1838959999999972
0
LINE
8
BLACK
6
CONTINUOUS
10
163.7778729999999996
20
-31.1838959999999972
11
163.7949999999999875
21
-31.2699999999999996
0
LINE
8
BLACK
6
CONTINUOUS
10
163.7949999999999875
20
-31.2699999999999996
11
163.7949999999999875
21
-31.7199999999999989
0
LINE
8
BLACK
6
CONTINUOUS
10
163.7949999999999875
20
-31.7199999999999989
11
163.7778729999999996
21
-31.8061039999999977
0
LINE
8
BLACK
6
CONTINUOUS
10
163.7778729999999996
20
-31.8061039999999977
11
163.7290989999999908
21
-31.8790990000000001
0
LINE
8
BLACK
6
CONTINUOUS
10
163.7290989999999908
20
-31.8790990000000001
11
163.6561039999999991
21
-31.9278729999999982
0
LINE
8
BLACK
6
CONTINUOUS
10
163.6561039999999991
20
-31.9278729999999982
11
163.5699999999999932
21
-31.9450000000000003
0
LINE
8
BLACK
6
CONTINUOUS
10
163.5699999999999932
20
-31.9450000000000003
11
162.8199999999999932
21
-31.9450000000000003
0
LINE
8
BLACK
6
CONTINUOUS
10
162.8199999999999932
20
-31.9450000000000003
11
162.7338959999999872
21
-31.9278729999999982
0
LINE
8
BLACK
6
CONTINUOUS
10
162.7338959999999872
20
-31.9278729999999982
11
162.6609009999999955
21
-31.8790990000000001
0
LINE
8
BLACK
6
CONTINUOUS
10
162.6609009999999955
20
-31.8790990000000001
11
162.6121269999999868
21
-31.8061039999999977
0
LINE
8
BLACK
6
CONTINUOUS
10
162.6121269999999868
20
-31.8061039999999977
11
162.5949999999999989
21
-31.7199999999999989
0
LINE
8
BLACK
6
CONTINUOUS
10
162.5949999999999989
20
-31.7199999999999989
11
162.5949999999999989
21
-31.2699999999999996
0
LINE
8
BLACK
6
CONTINUOUS
10
162.5949999999999989
20
-31.2699999999999996
11
162.6121269999999868
21
-31.1838959999999972
0
LINE
8
BLACK
6
CONTINUOUS
10
162.6121269999999868
20
-31.1838959999999972
11
162.6609009999999955
21
-31.1109009999999984
0
LINE
8
BLACK
6
CONTINUOUS
10
162.6609009999999955
20
-31.1109009999999984
11
162.7338959999999872
21
-31.0621270000000003
0
LINE
8
BLACK
6
CONTINUOUS
10
162.7338959999999872
20
-31.0621270000000003
11
162.8199999999999932
21
-31.0449999999999982
0
LINE
8
BLACK
6
CONTINUOUS
10
162.8199999999999932
20
-31.0449999999999982
11
163.5699999999999932
21
-31.0449999999999982
0
LINE
8
BLACK
6
CONTINUOUS
10
163.5699999999999932
20
-31.0449999999999982
11
163.6561039999999991
21
-31.0621270000000003
0
LINE
8
BLACK
6
CONTINUOUS
10
168.6918969999999831
20
-31.0621270000000003
11
168.7648920000000032
21
-31.1109009999999984
0
LINE
8
BLACK
6
CONTINUOUS
10
168.7648920000000032
20
-31.1109009999999984
11
168.8136659999999836
21
-31.1838959999999972
0
LINE
8
BLACK
6
CONTINUOUS
10
168.8136659999999836
20
-31.1838959999999972
11
168.8307929999999999
21
-31.2699999999999996
0
LINE
8
BLACK
6
CONTINUOUS
10
168.8307929999999999
20
-31.2699999999999996
11
168.8307929999999999
21
-31.7199999999999989
0
LINE
8
BLACK
6
CONTINUOUS
10
168.8307929999999999
20
-31.7199999999999989
11
168.8136659999999836
21
-31.8061039999999977
0
LINE
8
BLACK
6
CONTINUOUS
10
168.8136659999999836
20
-31.8061039999999977
11
168.7648920000000032
21
-31.8790990000000001
0
LINE
8
BLACK
6
CONTINUOUS
10
168.7648920000000032
20
-31.8790990000000001
11
168.6918969999999831
21
-31.9278729999999982
0
LINE
8
BLACK
6
CONTINUOUS
10
168.6918969999999831
20
-31.9278729999999982
11
168.6057930000000056
21
-31.9450000000000003
0
LINE
8
BLACK
6
CONTINUOUS
10
168.6057930000000056
20
-31.9450000000000003
11
167.8557930000000056
21
-31.9450000000000003
0
LINE
8
BLACK
6
CONTINUOUS
10
167.8557930000000056
20
-31.9450000000000003
11
167.7696889999999996
21
-31.9278729999999982
0
LINE
8
BLACK
6
CONTINUOUS
10
167.7696889999999996
20
-31.9278729999999982
11
167.6966939999999795
21
-31.8790990000000001
0
LINE
8
BLACK
6
CONTINUOUS
10
167.6966939999999795
20
-31.8790990000000001
11
167.6479199999999992
21
-31.8061039999999977
0
LINE
8
BLACK
6
CONTINUOUS
10
167.6479199999999992
20
-31.8061039999999977
11
167.6307929999999828
21
-31.7199999999999989
0
LINE
8
BLACK
6
CONTINUOUS
10
167.6307929999999828
20
-31.7199999999999989
11
167.6307929999999828
21
-31.2699999999999996
0
LINE
8
BLACK
6
CONTINUOUS
10
167.6307929999999828
20
-31.2699999999999996
11
167.6479199999999992
21
-31.1838959999999972
0
LINE
8
BLACK
6
CONTINUOUS
10
167.6479199999999992
20
-31.1838959999999972
11
167.6966939999999795
21
-31.1109009999999984
0
LINE
8
BLACK
6
CONTINUOUS
10
167.6966939999999795
20
-31.1109009999999984
11
167.7696889999999996
21
-31.0621270000000003
0
LINE
8
BLACK
6
CONTINUOUS
10
167.7696889999999996
20
-31.0621270000000003
11
167.8557930000000056
21
-31.0449999999999982
0
LINE
8
BLACK
6
CONTINUOUS
10
167.8557930000000056
20
-31.0449999999999982
11
168.6057930000000056
21
-31.0449999999999982
0
LINE
8
BLACK
6
CONTINUOUS
10
168.6057930000000056
20
-31.0449999999999982
11
168.6918969999999831
21
-31.0621270000000003
0
LINE
8
BLACK
6
CONTINUOUS
10
144.2690939999999955
20
-31.0550049999999978
11
144.3420889999999872
21
-31.1037789999999994
0
LINE
8
BLACK
6
CONTINUOUS
10
144.3420889999999872
20
-31.1037789999999994
11
144.390862999999996
21
-31.1767739999999982
0
LINE
8
BLACK
6
CONTINUOUS
10
144.390862999999996
20
-31.1767739999999982
11
144.4079899999999839
21
-31.2628779999999971
0
LINE
8
BLACK
6
CONTINUOUS
10
144.4079899999999839
20
-31.2628779999999971
11
144.4079899999999839
21
-31.7128779999999999
0
LINE
8
BLACK
6
CONTINUOUS
10
144.4079899999999839
20
-31.7128779999999999
11
144.390862999999996
21
-31.7989819999999987
0
LINE
8
BLACK
6
CONTINUOUS
10
144.390862999999996
20
-31.7989819999999987
11
144.3420889999999872
21
-31.8719769999999976
0
LINE
8
BLACK
6
CONTINUOUS
10
144.3420889999999872
20
-31.8719769999999976
11
144.2690939999999955
21
-31.9207509999999992
0
LINE
8
BLACK
6
CONTINUOUS
10
144.2690939999999955
20
-31.9207509999999992
11
144.1829899999999895
21
-31.9378779999999978
0
LINE
8
BLACK
6
CONTINUOUS
10
144.1829899999999895
20
-31.9378779999999978
11
143.4329899999999895
21
-31.9378779999999978
0
LINE
8
BLACK
6
CONTINUOUS
10
143.4329899999999895
20
-31.9378779999999978
11
143.3468859999999836
21
-31.9207509999999992
0
LINE
8
BLACK
6
CONTINUOUS
10
143.3468859999999836
20
-31.9207509999999992
11
143.2738909999999919
21
-31.8719769999999976
0
LINE
8
BLACK
6
CONTINUOUS
10
143.2738909999999919
20
-31.8719769999999976
11
143.2251169999999831
21
-31.7989819999999987
0
LINE
8
BLACK
6
CONTINUOUS
10
143.2251169999999831
20
-31.7989819999999987
11
143.2079899999999952
21
-31.7128779999999999
0
LINE
8
BLACK
6
CONTINUOUS
10
143.2079899999999952
20
-31.7128779999999999
11
143.2079899999999952
21
-31.2628779999999971
0
LINE
8
BLACK
6
CONTINUOUS
10
143.2079899999999952
20
-31.2628779999999971
11
143.2251169999999831
21
-31.1767739999999982
0
LINE
8
BLACK
6
CONTINUOUS
10
143.2251169999999831
20
-31.1767739999999982
11
143.2738909999999919
21
-31.1037789999999994
0
LINE
8
BLACK
6
CONTINUOUS
10
143.2738909999999919
20
-31.1037789999999994
11
143.3468859999999836
21
-31.0550049999999978
0
LINE
8
BLACK
6
CONTINUOUS
10
143.3468859999999836
20
-31.0550049999999978
11
143.4329899999999895
21
-31.0378779999999992
0
LINE
8
BLACK
6
CONTINUOUS
10
143.4329899999999895
20
-31.0378779999999992
11
144.1829899999999895
21
-31.0378779999999992
0
LINE
8
BLACK
6
CONTINUOUS
10
144.1829899999999895
20
-31.0378779999999992
11
144.2690939999999955
21
-31.0550049999999978
0
LINE
8
BLACK
6
CONTINUOUS
10
139.253499000000005
20
-31.0542069999999981
11
139.3264939999999967
21
-31.1029809999999998
0
LINE
8
BLACK
6
CONTINUOUS
10
139.3264939999999967
20
-31.1029809999999998
11
139.3752680000000055
21
-31.1759759999999986
0
LINE
8
BLACK
6
CONTINUOUS
10
139.3752680000000055
20
-31.1759759999999986
11
139.3923949999999934
21
-31.2620799999999974
0
LINE
8
BLACK
6
CONTINUOUS
10
139.3923949999999934
20
-31.2620799999999974
11
139.3923949999999934
21
-31.7120800000000003
0
LINE
8
BLACK
6
CONTINUOUS
10
139.3923949999999934
20
-31.7120800000000003
11
139.3752680000000055
21
-31.7981839999999991
0
LINE
8
BLACK
6
CONTINUOUS
10
139.3752680000000055
20
-31.7981839999999991
11
139.3264939999999967
21
-31.8711789999999979
0
LINE
8
BLACK
6
CONTINUOUS
10
139.3264939999999967
20
-31.8711789999999979
11
139.253499000000005
21
-31.9199529999999996
0
LINE
8
BLACK
6
CONTINUOUS
10
139.253499000000005
20
-31.9199529999999996
11
139.1673949999999991
21
-31.9370799999999981
0
LINE
8
BLACK
6
CONTINUOUS
10
139.1673949999999991
20
-31.9370799999999981
11
138.4173949999999991
21
-31.9370799999999981
0
LINE
8
BLACK
6
CONTINUOUS
10
138.4173949999999991
20
-31.9370799999999981
11
138.3312909999999931
21
-31.9199529999999996
0
LINE
8
BLACK
6
CONTINUOUS
10
138.3312909999999931
20
-31.9199529999999996
11
138.2582960000000014
21
-31.8711789999999979
0
LINE
8
BLACK
6
CONTINUOUS
10
138.2582960000000014
20
-31.8711789999999979
11
138.2095219999999927
21
-31.7981839999999991
0
LINE
8
BLACK
6
CONTINUOUS
10
138.2095219999999927
20
-31.7981839999999991
11
138.1923950000000048
21
-31.7120800000000003
0
LINE
8
BLACK
6
CONTINUOUS
10
138.1923950000000048
20
-31.7120800000000003
11
138.1923950000000048
21
-31.2620799999999974
0
LINE
8
BLACK
6
CONTINUOUS
10
138.1923950000000048
20
-31.2620799999999974
11
138.2095219999999927
21
-31.1759759999999986
0
LINE
8
BLACK
6
CONTINUOUS
10
138.2095219999999927
20
-31.1759759999999986
11
138.2582960000000014
21
-31.1029809999999998
0
LINE
8
BLACK
6
CONTINUOUS
10
138.2582960000000014
20
-31.1029809999999998
11
138.3312909999999931
21
-31.0542069999999981
0
LINE
8
BLACK
6
CONTINUOUS
10
138.3312909999999931
20
-31.0542069999999981
11
138.4173949999999991
21
-31.0370799999999996
0
LINE
8
BLACK
6
CONTINUOUS
10
138.4173949999999991
20
-31.0370799999999996
11
139.1673949999999991
21
-31.0370799999999996
0
LINE
8
BLACK
6
CONTINUOUS
10
139.1673949999999991
20
-31.0370799999999996
11
139.253499000000005
21
-31.0542069999999981
0
LINE
8
BLACK
6
CONTINUOUS
10
141.7853939999999966
20
-31.0542069999999981
11
141.8583889999999883
21
-31.1029809999999998
0
LINE
8
BLACK
6
CONTINUOUS
10
141.8583889999999883
20
-31.1029809999999998
11
141.9071629999999971
21
-31.1759759999999986
0
LINE
8
BLACK
6
CONTINUOUS
10
141.9071629999999971
20
-31.1759759999999986
11
141.924289999999985
21
-31.2620799999999974
0
LINE
8
BLACK
6
CONTINUOUS
10
141.924289999999985
20
-31.2620799999999974
11
141.924289999999985
21
-31.7120800000000003
0
LINE
8
BLACK
6
CONTINUOUS
10
141.924289999999985
20
-31.7120800000000003
11
141.9071629999999971
21
-31.7981839999999991
0
LINE
8
BLACK
6
CONTINUOUS
10
141.9071629999999971
20
-31.7981839999999991
11
141.8583889999999883
21
-31.8711789999999979
0
LINE
8
BLACK
6
CONTINUOUS
10
141.8583889999999883
20
-31.8711789999999979
11
141.7853939999999966
21
-31.9199529999999996
0
LINE
8
BLACK
6
CONTINUOUS
10
141.7853939999999966
20
-31.9199529999999996
11
141.6992899999999906
21
-31.9370799999999981
0
LINE
8
BLACK
6
CONTINUOUS
10
141.6992899999999906
20
-31.9370799999999981
11
140.9492899999999906
21
-31.9370799999999981
0
LINE
8
BLACK
6
CONTINUOUS
10
140.9492899999999906
20
-31.9370799999999981
11
140.8631859999999847
21
-31.9199529999999996
0
LINE
8
BLACK
6
CONTINUOUS
10
140.8631859999999847
20
-31.9199529999999996
11
140.790190999999993
21
-31.8711789999999979
0
LINE
8
BLACK
6
CONTINUOUS
10
140.790190999999993
20
-31.8711789999999979
11
140.7414169999999842
21
-31.7981839999999991
0
LINE
8
BLACK
6
CONTINUOUS
10
140.7414169999999842
20
-31.7981839999999991
11
140.7242899999999963
21
-31.7120800000000003
0
LINE
8
BLACK
6
CONTINUOUS
10
140.7242899999999963
20
-31.7120800000000003
11
140.7242899999999963
21
-31.2620799999999974
0
LINE
8
BLACK
6
CONTINUOUS
10
140.7242899999999963
20
-31.2620799999999974
11
140.7414169999999842
21
-31.1759759999999986
0
LINE
8
BLACK
6
CONTINUOUS
10
140.7414169999999842
20
-31.1759759999999986
11
140.790190999999993
21
-31.1029809999999998
0
LINE
8
BLACK
6
CONTINUOUS
10
140.790190999999993
20
-31.1029809999999998
11
140.8631859999999847
21
-31.0542069999999981
0
LINE
8
BLACK
6
CONTINUOUS
10
140.8631859999999847
20
-31.0542069999999981
11
140.9492899999999906
21
-31.0370799999999996
0
LINE
8
BLACK
6
CONTINUOUS
10
140.9492899999999906
20
-31.0370799999999996
11
141.6992899999999906
21
-31.0370799999999996
0
LINE
8
BLACK
6
CONTINUOUS
10
141.6992899999999906
20
-31.0370799999999996
11
141.7853939999999966
21
-31.0542069999999981
0
LINE
8
BLACK
6
CONTINUOUS
10
155.993676999999991
20
-31.0527329999999999
11
156.0666719999999827
21
-31.101506999999998
0
LINE
8
BLACK
6
CONTINUOUS
10
156.0666719999999827
20
-31.101506999999998
11
156.1154459999999915
21
-31.1745019999999968
0
LINE
8
BLACK
6
CONTINUOUS
10
156.1154459999999915
20
-31.1745019999999968
11
156.1325729999999794
21
-31.2606059999999992
0
LINE
8
BLACK
6
CONTINUOUS
10
156.1325729999999794
20
-31.2606059999999992
11
156.1325729999999794
21
-31.7106059999999985
0
LINE
8
BLACK
6
CONTINUOUS
10
156.1325729999999794
20
-31.7106059999999985
11
156.1154459999999915
21
-31.7967099999999974
0
LINE
8
BLACK
6
CONTINUOUS
10
156.1154459999999915
20
-31.7967099999999974
11
156.0666719999999827
21
-31.8697049999999997
0
LINE
8
BLACK
6
CONTINUOUS
10
156.0666719999999827
20
-31.8697049999999997
11
155.993676999999991
21
-31.9184789999999978
0
LINE
8
BLACK
6
CONTINUOUS
10
155.993676999999991
20
-31.9184789999999978
11
155.9075729999999851
21
-31.9356059999999999
0
LINE
8
BLACK
6
CONTINUOUS
10
155.9075729999999851
20
-31.9356059999999999
11
155.1575729999999851
21
-31.9356059999999999
0
LINE
8
BLACK
6
CONTINUOUS
10
155.1575729999999851
20
-31.9356059999999999
11
155.0714689999999791
21
-31.9184789999999978
0
LINE
8
BLACK
6
CONTINUOUS
10
155.0714689999999791
20
-31.9184789999999978
11
154.9984739999999874
21
-31.8697049999999997
0
LINE
8
BLACK
6
CONTINUOUS
10
154.9984739999999874
20
-31.8697049999999997
11
154.9497000000000071
21
-31.7967099999999974
0
LINE
8
BLACK
6
CONTINUOUS
10
154.9497000000000071
20
-31.7967099999999974
11
154.9325729999999908
21
-31.7106059999999985
0
LINE
8
BLACK
6
CONTINUOUS
10
154.9325729999999908
20
-31.7106059999999985
11
154.9325729999999908
21
-31.2606059999999992
0
LINE
8
BLACK
6
CONTINUOUS
10
154.9325729999999908
20
-31.2606059999999992
11
154.9497000000000071
21
-31.1745019999999968
0
LINE
8
BLACK
6
CONTINUOUS
10
154.9497000000000071
20
-31.1745019999999968
11
154.9984739999999874
21
-31.101506999999998
0
LINE
8
BLACK
6
CONTINUOUS
10
154.9984739999999874
20
-31.101506999999998
11
155.0714689999999791
21
-31.0527329999999999
0
LINE
8
BLACK
6
CONTINUOUS
10
155.0714689999999791
20
-31.0527329999999999
11
155.1575729999999851
21
-31.0356059999999978
0
LINE
8
BLACK
6
CONTINUOUS
10
155.1575729999999851
20
-31.0356059999999978
11
155.9075729999999851
21
-31.0356059999999978
0
LINE
8
BLACK
6
CONTINUOUS
10
155.9075729999999851
20
-31.0356059999999978
11
155.993676999999991
21
-31.0527329999999999
0
LINE
8
BLACK
6
CONTINUOUS
10
146.7974279999999965
20
-31.0478829999999988
11
146.8704229999999882
21
-31.0966569999999969
0
LINE
8
BLACK
6
CONTINUOUS
10
146.8704229999999882
20
-31.0966569999999969
11
146.9191969999999969
21
-31.1696519999999992
0
LINE
8
BLACK
6
CONTINUOUS
10
146.9191969999999969
20
-31.1696519999999992
11
146.9363239999999848
21
-31.2557559999999981
0
LINE
8
BLACK
6
CONTINUOUS
10
146.9363239999999848
20
-31.2557559999999981
11
146.9363239999999848
21
-31.7057559999999974
0
LINE
8
BLACK
6
CONTINUOUS
10
146.9363239999999848
20
-31.7057559999999974
11
146.9191969999999969
21
-31.7918599999999998
0
LINE
8
BLACK
6
CONTINUOUS
10
146.9191969999999969
20
-31.7918599999999998
11
146.8704229999999882
21
-31.8648549999999986
0
LINE
8
BLACK
6
CONTINUOUS
10
146.8704229999999882
20
-31.8648549999999986
11
146.7974279999999965
21
-31.9136290000000002
0
LINE
8
BLACK
6
CONTINUOUS
10
146.7974279999999965
20
-31.9136290000000002
11
146.7113239999999905
21
-31.9307559999999988
0
LINE
8
BLACK
6
CONTINUOUS
10
146.7113239999999905
20
-31.9307559999999988
11
145.9613239999999905
21
-31.9307559999999988
0
LINE
8
BLACK
6
CONTINUOUS
10
145.9613239999999905
20
-31.9307559999999988
11
145.8752199999999846
21
-31.9136290000000002
0
LINE
8
BLACK
6
CONTINUOUS
10
145.8752199999999846
20
-31.9136290000000002
11
145.8022249999999929
21
-31.8648549999999986
0
LINE
8
BLACK
6
CONTINUOUS
10
145.8022249999999929
20
-31.8648549999999986
11
145.7534509999999841
21
-31.7918599999999998
0
LINE
8
BLACK
6
CONTINUOUS
10
145.7534509999999841
20
-31.7918599999999998
11
145.7363239999999962
21
-31.7057559999999974
0
LINE
8
BLACK
6
CONTINUOUS
10
145.7363239999999962
20
-31.7057559999999974
11
145.7363239999999962
21
-31.2557559999999981
0
LINE
8
BLACK
6
CONTINUOUS
10
145.7363239999999962
20
-31.2557559999999981
11
145.7534509999999841
21
-31.1696519999999992
0
LINE
8
BLACK
6
CONTINUOUS
10
145.7534509999999841
20
-31.1696519999999992
11
145.8022249999999929
21
-31.0966569999999969
0
LINE
8
BLACK
6
CONTINUOUS
10
145.8022249999999929
20
-31.0966569999999969
11
145.8752199999999846
21
-31.0478829999999988
0
LINE
8
BLACK
6
CONTINUOUS
10
145.8752199999999846
20
-31.0478829999999988
11
145.9613239999999905
21
-31.0307560000000002
0
LINE
8
BLACK
6
CONTINUOUS
10
145.9613239999999905
20
-31.0307560000000002
11
146.7113239999999905
21
-31.0307560000000002
0
LINE
8
BLACK
6
CONTINUOUS
10
146.7113239999999905
20
-31.0307560000000002
11
146.7974279999999965
21
-31.0478829999999988
0
LINE
8
BLACK
6
CONTINUOUS
10
136.769677999999999
20
-31.0392609999999998
11
136.8426729999999907
21
-31.0880349999999979
0
LINE
8
BLACK
6
CONTINUOUS
10
136.8426729999999907
20
-31.0880349999999979
11
136.8914469999999994
21
-31.1610300000000002
0
LINE
8
BLACK
6
CONTINUOUS
10
136.8914469999999994
20
-31.1610300000000002
11
136.9085739999999873
21
-31.2471339999999991
0
LINE
8
BLACK
6
CONTINUOUS
10
136.9085739999999873
20
-31.2471339999999991
11
136.9085739999999873
21
-31.6971339999999984
0
LINE
8
BLACK
6
CONTINUOUS
10
136.9085739999999873
20
-31.6971339999999984
11
136.8914469999999994
21
-31.7832379999999972
0
LINE
8
BLACK
6
CONTINUOUS
10
136.8914469999999994
20
-31.7832379999999972
11
136.8426729999999907
21
-31.8562329999999996
0
LINE
8
BLACK
6
CONTINUOUS
10
136.8426729999999907
20
-31.8562329999999996
11
136.769677999999999
21
-31.9050069999999977
0
LINE
8
BLACK
6
CONTINUOUS
10
136.769677999999999
20
-31.9050069999999977
11
136.683573999999993
21
-31.9221339999999998
0
LINE
8
BLACK
6
CONTINUOUS
10
136.683573999999993
20
-31.9221339999999998
11
135.933573999999993
21
-31.9221339999999998
0
LINE
8
BLACK
6
CONTINUOUS
10
135.933573999999993
20
-31.9221339999999998
11
135.8474699999999871
21
-31.9050069999999977
0
LINE
8
BLACK
6
CONTINUOUS
10
135.8474699999999871
20
-31.9050069999999977
11
135.7744749999999954
21
-31.8562329999999996
0
LINE
8
BLACK
6
CONTINUOUS
10
135.7744749999999954
20
-31.8562329999999996
11
135.7257009999999866
21
-31.7832379999999972
0
LINE
8
BLACK
6
CONTINUOUS
10
135.7257009999999866
20
-31.7832379999999972
11
135.7085739999999987
21
-31.6971339999999984
0
LINE
8
BLACK
6
CONTINUOUS
10
135.7085739999999987
20
-31.6971339999999984
11
135.7085739999999987
21
-31.2471339999999991
0
LINE
8
BLACK
6
CONTINUOUS
10
135.7085739999999987
20
-31.2471339999999991
11
135.7257009999999866
21
-31.1610300000000002
0
LINE
8
BLACK
6
CONTINUOUS
10
135.7257009999999866
20
-31.1610300000000002
11
135.7744749999999954
21
-31.0880349999999979
0
LINE
8
BLACK
6
CONTINUOUS
10
135.7744749999999954
20
-31.0880349999999979
11
135.8474699999999871
21
-31.0392609999999998
0
LINE
8
BLACK
6
CONTINUOUS
10
135.8474699999999871
20
-31.0392609999999998
11
135.933573999999993
21
-31.0221339999999977
0
LINE
8
BLACK
6
CONTINUOUS
10
135.933573999999993
20
-31.0221339999999977
11
136.683573999999993
21
-31.0221339999999977
0
LINE
8
BLACK
6
CONTINUOUS
10
136.683573999999993
20
-31.0221339999999977
11
136.769677999999999
21
-31.0392609999999998
0
LINE
8
BLACK
6
CONTINUOUS
10
171.2761040000000037
20
-27.8147919999999971
11
171.3490989999999954
21
-27.8635659999999987
0
LINE
8
BLACK
6
CONTINUOUS
10
171.3490989999999954
20
-27.8635659999999987
11
171.3978730000000041
21
-27.9365609999999975
0
LINE
8
BLACK
6
CONTINUOUS
10
171.3978730000000041
20
-27.9365609999999975
11
171.414999999999992
21
-28.0226649999999999
0
LINE
8
BLACK
6
CONTINUOUS
10
171.414999999999992
20
-28.0226649999999999
11
171.414999999999992
21
-28.4726649999999992
0
LINE
8
BLACK
6
CONTINUOUS
10
171.414999999999992
20
-28.4726649999999992
11
171.3978730000000041
21
-28.5587689999999981
0
LINE
8
BLACK
6
CONTINUOUS
10
171.3978730000000041
20
-28.5587689999999981
11
171.3490989999999954
21
-28.6317640000000004
0
LINE
8
BLACK
6
CONTINUOUS
10
171.3490989999999954
20
-28.6317640000000004
11
171.2761040000000037
21
-28.6805379999999985
0
LINE
8
BLACK
6
CONTINUOUS
10
171.2761040000000037
20
-28.6805379999999985
11
171.1899999999999977
21
-28.6976649999999971
0
LINE
8
BLACK
6
CONTINUOUS
10
171.1899999999999977
20
-28.6976649999999971
11
170.4399999999999977
21
-28.6976649999999971
0
LINE
8
BLACK
6
CONTINUOUS
10
170.4399999999999977
20
-28.6976649999999971
11
170.3538959999999918
21
-28.6805379999999985
0
LINE
8
BLACK
6
CONTINUOUS
10
170.3538959999999918
20
-28.6805379999999985
11
170.2809010000000001
21
-28.6317640000000004
0
LINE
8
BLACK
6
CONTINUOUS
10
170.2809010000000001
20
-28.6317640000000004
11
170.2321269999999913
21
-28.5587689999999981
0
LINE
8
BLACK
6
CONTINUOUS
10
170.2321269999999913
20
-28.5587689999999981
11
170.2150000000000034
21
-28.4726649999999992
0
LINE
8
BLACK
6
CONTINUOUS
10
170.2150000000000034
20
-28.4726649999999992
11
170.2150000000000034
21
-28.0226649999999999
0
LINE
8
BLACK
6
CONTINUOUS
10
170.2150000000000034
20
-28.0226649999999999
11
170.2321269999999913
21
-27.9365609999999975
0
LINE
8
BLACK
6
CONTINUOUS
10
170.2321269999999913
20
-27.9365609999999975
11
170.2809010000000001
21
-27.8635659999999987
0
LINE
8
BLACK
6
CONTINUOUS
10
170.2809010000000001
20
-27.8635659999999987
11
170.3538959999999918
21
-27.8147919999999971
0
LINE
8
BLACK
6
CONTINUOUS
10
170.3538959999999918
20
-27.8147919999999971
11
170.4399999999999977
21
-27.7976649999999985
0
LINE
8
BLACK
6
CONTINUOUS
10
170.4399999999999977
20
-27.7976649999999985
11
171.1899999999999977
21
-27.7976649999999985
0
LINE
8
BLACK
6
CONTINUOUS
10
171.1899999999999977
20
-27.7976649999999985
11
171.2761040000000037
21
-27.8147919999999971
0
LINE
8
BLACK
6
CONTINUOUS
10
166.1760259999999789
20
-27.7901229999999977
11
166.249020999999999
21
-27.8388969999999993
0
LINE
8
BLACK
6
CONTINUOUS
10
166.249020999999999
20
-27.8388969999999993
11
166.2977949999999794
21
-27.9118919999999981
0
LINE
8
BLACK
6
CONTINUOUS
10
166.2977949999999794
20
-27.9118919999999981
11
166.3149219999999957
21
-27.997995999999997
0
LINE
8
BLACK
6
CONTINUOUS
10
166.3149219999999957
20
-27.997995999999997
11
166.3149219999999957
21
-28.4479959999999998
0
LINE
8
BLACK
6
CONTINUOUS
10
166.3149219999999957
20
-28.4479959999999998
11
166.2977949999999794
21
-28.5340999999999987
0
LINE
8
BLACK
6
CONTINUOUS
10
166.2977949999999794
20
-28.5340999999999987
11
166.249020999999999
21
-28.6070949999999975
0
LINE
8
BLACK
6
CONTINUOUS
10
166.249020999999999
20
-28.6070949999999975
11
166.1760259999999789
21
-28.6558689999999991
0
LINE
8
BLACK
6
CONTINUOUS
10
166.1760259999999789
20
-28.6558689999999991
11
166.0899220000000014
21
-28.6729959999999977
0
LINE
8
BLACK
6
CONTINUOUS
10
166.0899220000000014
20
-28.6729959999999977
11
165.3399220000000014
21
-28.6729959999999977
0
LINE
8
BLACK
6
CONTINUOUS
10
165.3399220000000014
20
-28.6729959999999977
11
165.2538179999999954
21
-28.6558689999999991
0
LINE
8
BLACK
6
CONTINUOUS
10
165.2538179999999954
20
-28.6558689999999991
11
165.1808230000000037
21
-28.6070949999999975
0
LINE
8
BLACK
6
CONTINUOUS
10
165.1808230000000037
20
-28.6070949999999975
11
165.132048999999995
21
-28.5340999999999987
0
LINE
8
BLACK
6
CONTINUOUS
10
165.132048999999995
20
-28.5340999999999987
11
165.1149219999999787
21
-28.4479959999999998
0
LINE
8
BLACK
6
CONTINUOUS
10
165.1149219999999787
20
-28.4479959999999998
11
165.1149219999999787
21
-27.997995999999997
0
LINE
8
BLACK
6
CONTINUOUS
10
165.1149219999999787
20
-27.997995999999997
11
165.132048999999995
21
-27.9118919999999981
0
LINE
8
BLACK
6
CONTINUOUS
10
165.132048999999995
20
-27.9118919999999981
11
165.1808230000000037
21
-27.8388969999999993
0
LINE
8
BLACK
6
CONTINUOUS
10
165.1808230000000037
20
-27.8388969999999993
11
165.2538179999999954
21
-27.7901229999999977
0
LINE
8
BLACK
6
CONTINUOUS
10
165.2538179999999954
20
-27.7901229999999977
11
165.3399220000000014
21
-27.7729959999999991
0
LINE
8
BLACK
6
CONTINUOUS
10
165.3399220000000014
20
-27.7729959999999991
11
166.0899220000000014
21
-27.7729959999999991
0
LINE
8
BLACK
6
CONTINUOUS
10
166.0899220000000014
20
-27.7729959999999991
11
166.1760259999999789
21
-27.7901229999999977
0
LINE
8
BLACK
6
CONTINUOUS
10
149.4464289999999949
20
-27.7739969999999978
11
149.5194239999999866
21
-27.8227709999999995
0
LINE
8
BLACK
6
CONTINUOUS
10
149.5194239999999866
20
-27.8227709999999995
11
149.5681979999999953
21
-27.8957659999999983
0
LINE
8
BLACK
6
CONTINUOUS
10
149.5681979999999953
20
-27.8957659999999983
11
149.5853249999999832
21
-27.9818699999999971
0
LINE
8
BLACK
6
CONTINUOUS
10
149.5853249999999832
20
-27.9818699999999971
11
149.5853249999999832
21
-28.43187
0
LINE
8
BLACK
6
CONTINUOUS
10
149.5853249999999832
20
-28.43187
11
149.5681979999999953
21
-28.5179739999999988
0
LINE
8
BLACK
6
CONTINUOUS
10
149.5681979999999953
20
-28.5179739999999988
11
149.5194239999999866
21
-28.5909689999999976
0
LINE
8
BLACK
6
CONTINUOUS
10
149.5194239999999866
20
-28.5909689999999976
11
149.4464289999999949
21
-28.6397429999999993
0
LINE
8
BLACK
6
CONTINUOUS
10
149.4464289999999949
20
-28.6397429999999993
11
149.3603249999999889
21
-28.6568699999999978
0
LINE
8
BLACK
6
CONTINUOUS
10
149.3603249999999889
20
-28.6568699999999978
11
148.6103249999999889
21
-28.6568699999999978
0
LINE
8
BLACK
6
CONTINUOUS
10
148.6103249999999889
20
-28.6568699999999978
11
148.524220999999983
21
-28.6397429999999993
0
LINE
8
BLACK
6
CONTINUOUS
10
148.524220999999983
20
-28.6397429999999993
11
148.4512259999999912
21
-28.5909689999999976
0
LINE
8
BLACK
6
CONTINUOUS
10
148.4512259999999912
20
-28.5909689999999976
11
148.4024519999999825
21
-28.5179739999999988
0
LINE
8
BLACK
6
CONTINUOUS
10
148.4024519999999825
20
-28.5179739999999988
11
148.3853249999999946
21
-28.43187
0
LINE
8
BLACK
6
CONTINUOUS
10
148.3853249999999946
20
-28.43187
11
148.3853249999999946
21
-27.9818699999999971
0
LINE
8
BLACK
6
CONTINUOUS
10
148.3853249999999946
20
-27.9818699999999971
11
148.4024519999999825
21
-27.8957659999999983
0
LINE
8
BLACK
6
CONTINUOUS
10
148.4024519999999825
20
-27.8957659999999983
11
148.4512259999999912
21
-27.8227709999999995
0
LINE
8
BLACK
6
CONTINUOUS
10
148.4512259999999912
20
-27.8227709999999995
11
148.524220999999983
21
-27.7739969999999978
0
LINE
8
BLACK
6
CONTINUOUS
10
148.524220999999983
20
-27.7739969999999978
11
148.6103249999999889
21
-27.7568699999999993
0
LINE
8
BLACK
6
CONTINUOUS
10
148.6103249999999889
20
-27.7568699999999993
11
149.3603249999999889
21
-27.7568699999999993
0
LINE
8
BLACK
6
CONTINUOUS
10
149.3603249999999889
20
-27.7568699999999993
11
149.4464289999999949
21
-27.7739969999999978
0
LINE
8
BLACK
6
CONTINUOUS
10
153.4961040000000025
20
-27.7621269999999996
11
153.5690989999999942
21
-27.8109009999999977
0
LINE
8
BLACK
6
CONTINUOUS
10
153.5690989999999942
20
-27.8109009999999977
11
153.617873000000003
21
-27.883896
0
LINE
8
BLACK
6
CONTINUOUS
10
153.617873000000003
20
-27.883896
11
153.6349999999999909
21
-27.9699999999999989
0
LINE
8
BLACK
6
CONTINUOUS
10
153.6349999999999909
20
-27.9699999999999989
11
153.6349999999999909
21
-28.4199999999999982
0
LINE
8
BLACK
6
CONTINUOUS
10
153.6349999999999909
20
-28.4199999999999982
11
153.617873000000003
21
-28.506103999999997
0
LINE
8
BLACK
6
CONTINUOUS
10
153.617873000000003
20
-28.506103999999997
11
153.5690989999999942
21
-28.5790989999999994
0
LINE
8
BLACK
6
CONTINUOUS
10
153.5690989999999942
20
-28.5790989999999994
11
153.4961040000000025
21
-28.6278729999999975
0
LINE
8
BLACK
6
CONTINUOUS
10
153.4961040000000025
20
-28.6278729999999975
11
153.4099999999999966
21
-28.6449999999999996
0
LINE
8
BLACK
6
CONTINUOUS
10
153.4099999999999966
20
-28.6449999999999996
11
152.6599999999999966
21
-28.6449999999999996
0
LINE
8
BLACK
6
CONTINUOUS
10
152.6599999999999966
20
-28.6449999999999996
11
152.5738959999999906
21
-28.6278729999999975
0
LINE
8
BLACK
6
CONTINUOUS
10
152.5738959999999906
20
-28.6278729999999975
11
152.5009009999999989
21
-28.5790989999999994
0
LINE
8
BLACK
6
CONTINUOUS
10
152.5009009999999989
20
-28.5790989999999994
11
152.4521269999999902
21
-28.506103999999997
0
LINE
8
BLACK
6
CONTINUOUS
10
152.4521269999999902
20
-28.506103999999997
11
152.4350000000000023
21
-28.4199999999999982
0
LINE
8
BLACK
6
CONTINUOUS
10
152.4350000000000023
20
-28.4199999999999982
11
152.4350000000000023
21
-27.9699999999999989
0
LINE
8
BLACK
6
CONTINUOUS
10
152.4350000000000023
20
-27.9699999999999989
11
152.4521269999999902
21
-27.883896
0
LINE
8
BLACK
6
CONTINUOUS
10
152.4521269999999902
20
-27.883896
11
152.5009009999999989
21
-27.8109009999999977
0
LINE
8
BLACK
6
CONTINUOUS
10
152.5009009999999989
20
-27.8109009999999977
11
152.5738959999999906
21
-27.7621269999999996
0
LINE
8
BLACK
6
CONTINUOUS
10
152.5738959999999906
20
-27.7621269999999996
11
152.6599999999999966
21
-27.7449999999999974
0
LINE
8
BLACK
6
CONTINUOUS
10
152.6599999999999966
20
-27.7449999999999974
11
153.4099999999999966
21
-27.7449999999999974
0
LINE
8
BLACK
6
CONTINUOUS
10
153.4099999999999966
20
-27.7449999999999974
11
153.4961040000000025
21
-27.7621269999999996
0
LINE
8
BLACK
6
CONTINUOUS
10
158.5761039999999866
20
-27.7621269999999996
11
158.6490990000000068
21
-27.8109009999999977
0
LINE
8
BLACK
6
CONTINUOUS
10
158.6490990000000068
20
-27.8109009999999977
11
158.6978729999999871
21
-27.883896
0
LINE
8
BLACK
6
CONTINUOUS
10
158.6978729999999871
20
-27.883896
11
158.7150000000000034
21
-27.9699999999999989
0
LINE
8
BLACK
6
CONTINUOUS
10
158.7150000000000034
20
-27.9699999999999989
11
158.7150000000000034
21
-28.4199999999999982
0
LINE
8
BLACK
6
CONTINUOUS
10
158.7150000000000034
20
-28.4199999999999982
11
158.6978729999999871
21
-28.506103999999997
0
LINE
8
BLACK
6
CONTINUOUS
10
158.6978729999999871
20
-28.506103999999997
11
158.6490990000000068
21
-28.5790989999999994
0
LINE
8
BLACK
6
CONTINUOUS
10
158.6490990000000068
20
-28.5790989999999994
11
158.5761039999999866
21
-28.6278729999999975
0
LINE
8
BLACK
6
CONTINUOUS
10
158.5761039999999866
20
-28.6278729999999975
11
158.4899999999999807
21
-28.6449999999999996
0
LINE
8
BLACK
6
CONTINUOUS
10
158.4899999999999807
20
-28.6449999999999996
11
157.7399999999999807
21
-28.6449999999999996
0
LINE
8
BLACK
6
CONTINUOUS
10
157.7399999999999807
20
-28.6449999999999996
11
157.6538960000000031
21
-28.6278729999999975
0
LINE
8
BLACK
6
CONTINUOUS
10
157.6538960000000031
20
-28.6278729999999975
11
157.580900999999983
21
-28.5790989999999994
0
LINE
8
BLACK
6
CONTINUOUS
10
157.580900999999983
20
-28.5790989999999994
11
157.5321270000000027
21
-28.506103999999997
0
LINE
8
BLACK
6
CONTINUOUS
10
157.5321270000000027
20
-28.506103999999997
11
157.5149999999999864
21
-28.4199999999999982
0
LINE
8
BLACK
6
CONTINUOUS
10
157.5149999999999864
20
-28.4199999999999982
11
157.5149999999999864
21
-27.9699999999999989
0
LINE
8
BLACK
6
CONTINUOUS
10
157.5149999999999864
20
-27.9699999999999989
11
157.5321270000000027
21
-27.883896
0
LINE
8
BLACK
6
CONTINUOUS
10
157.5321270000000027
20
-27.883896
11
157.580900999999983
21
-27.8109009999999977
0
LINE
8
BLACK
6
CONTINUOUS
10
157.580900999999983
20
-27.8109009999999977
11
157.6538960000000031
21
-27.7621269999999996
0
LINE
8
BLACK
6
CONTINUOUS
10
157.6538960000000031
20
-27.7621269999999996
11
157.7399999999999807
21
-27.7449999999999974
0
LINE
8
BLACK
6
CONTINUOUS
10
157.7399999999999807
20
-27.7449999999999974
11
158.4899999999999807
21
-27.7449999999999974
0
LINE
8
BLACK
6
CONTINUOUS
10
158.4899999999999807
20
-27.7449999999999974
11
158.5761039999999866
21
-27.7621269999999996
0
LINE
8
BLACK
6
CONTINUOUS
10
161.1044369999999901
20
-27.7621269999999996
11
161.1774319999999818
21
-27.8109009999999977
0
LINE
8
BLACK
6
CONTINUOUS
10
161.1774319999999818
20
-27.8109009999999977
11
161.2262059999999906
21
-27.883896
0
LINE
8
BLACK
6
CONTINUOUS
10
161.2262059999999906
20
-27.883896
11
161.2433330000000069
21
-27.9699999999999989
0
LINE
8
BLACK
6
CONTINUOUS
10
161.2433330000000069
20
-27.9699999999999989
11
161.2433330000000069
21
-28.4199999999999982
0
LINE
8
BLACK
6
CONTINUOUS
10
161.2433330000000069
20
-28.4199999999999982
11
161.2262059999999906
21
-28.506103999999997
0
LINE
8
BLACK
6
CONTINUOUS
10
161.2262059999999906
20
-28.506103999999997
11
161.1774319999999818
21
-28.5790989999999994
0
LINE
8
BLACK
6
CONTINUOUS
10
161.1774319999999818
20
-28.5790989999999994
11
161.1044369999999901
21
-28.6278729999999975
0
LINE
8
BLACK
6
CONTINUOUS
10
161.1044369999999901
20
-28.6278729999999975
11
161.0183329999999842
21
-28.6449999999999996
0
LINE
8
BLACK
6
CONTINUOUS
10
161.0183329999999842
20
-28.6449999999999996
11
160.2683329999999842
21
-28.6449999999999996
0
LINE
8
BLACK
6
CONTINUOUS
10
160.2683329999999842
20
-28.6449999999999996
11
160.1822290000000066
21
-28.6278729999999975
0
LINE
8
BLACK
6
CONTINUOUS
10
160.1822290000000066
20
-28.6278729999999975
11
160.1092339999999865
21
-28.5790989999999994
0
LINE
8
BLACK
6
CONTINUOUS
10
160.1092339999999865
20
-28.5790989999999994
11
160.0604600000000062
21
-28.506103999999997
0
LINE
8
BLACK
6
CONTINUOUS
10
160.0604600000000062
20
-28.506103999999997
11
160.0433329999999899
21
-28.4199999999999982
0
LINE
8
BLACK
6
CONTINUOUS
10
160.0433329999999899
20
-28.4199999999999982
11
160.0433329999999899
21
-27.9699999999999989
0
LINE
8
BLACK
6
CONTINUOUS
10
160.0433329999999899
20
-27.9699999999999989
11
160.0604600000000062
21
-27.883896
0
LINE
8
BLACK
6
CONTINUOUS
10
160.0604600000000062
20
-27.883896
11
160.1092339999999865
21
-27.8109009999999977
0
LINE
8
BLACK
6
CONTINUOUS
10
160.1092339999999865
20
-27.8109009999999977
11
160.1822290000000066
21
-27.7621269999999996
0
LINE
8
BLACK
6
CONTINUOUS
10
160.1822290000000066
20
-27.7621269999999996
11
160.2683329999999842
21
-27.7449999999999974
0
LINE
8
BLACK
6
CONTINUOUS
10
160.2683329999999842
20
-27.7449999999999974
11
161.0183329999999842
21
-27.7449999999999974
0
LINE
8
BLACK
6
CONTINUOUS
10
161.0183329999999842
20
-27.7449999999999974
11
161.1044369999999901
21
-27.7621269999999996
0
LINE
8
BLACK
6
CONTINUOUS
10
163.6561039999999991
20
-27.7621269999999996
11
163.7290989999999908
21
-27.8109009999999977
0
LINE
8
BLACK
6
CONTINUOUS
10
163.7290989999999908
20
-27.8109009999999977
11
163.7778729999999996
21
-27.883896
0
LINE
8
BLACK
6
CONTINUOUS
10
163.7778729999999996
20
-27.883896
11
163.7949999999999875
21
-27.9699999999999989
0
LINE
8
BLACK
6
CONTINUOUS
10
163.7949999999999875
20
-27.9699999999999989
11
163.7949999999999875
21
-28.4199999999999982
0
LINE
8
BLACK
6
CONTINUOUS
10
163.7949999999999875
20
-28.4199999999999982
11
163.7778729999999996
21
-28.506103999999997
0
LINE
8
BLACK
6
CONTINUOUS
10
163.7778729999999996
20
-28.506103999999997
11
163.7290989999999908
21
-28.5790989999999994
0
LINE
8
BLACK
6
CONTINUOUS
10
163.7290989999999908
20
-28.5790989999999994
11
163.6561039999999991
21
-28.6278729999999975
0
LINE
8
BLACK
6
CONTINUOUS
10
163.6561039999999991
20
-28.6278729999999975
11
163.5699999999999932
21
-28.6449999999999996
0
LINE
8
BLACK
6
CONTINUOUS
10
163.5699999999999932
20
-28.6449999999999996
11
162.8199999999999932
21
-28.6449999999999996
0
LINE
8
BLACK
6
CONTINUOUS
10
162.8199999999999932
20
-28.6449999999999996
11
162.7338959999999872
21
-28.6278729999999975
0
LINE
8
BLACK
6
CONTINUOUS
10
162.7338959999999872
20
-28.6278729999999975
11
162.6609009999999955
21
-28.5790989999999994
0
LINE
8
BLACK
6
CONTINUOUS
10
162.6609009999999955
20
-28.5790989999999994
11
162.6121269999999868
21
-28.506103999999997
0
LINE
8
BLACK
6
CONTINUOUS
10
162.6121269999999868
20
-28.506103999999997
11
162.5949999999999989
21
-28.4199999999999982
0
LINE
8
BLACK
6
CONTINUOUS
10
162.5949999999999989
20
-28.4199999999999982
11
162.5949999999999989
21
-27.9699999999999989
0
LINE
8
BLACK
6
CONTINUOUS
10
162.5949999999999989
20
-27.9699999999999989
11
162.6121269999999868
21
-27.883896
0
LINE
8
BLACK
6
CONTINUOUS
10
162.6121269999999868
20
-27.883896
11
162.6609009999999955
21
-27.8109009999999977
0
LINE
8
BLACK
6
CONTINUOUS
10
162.6609009999999955
20
-27.8109009999999977
11
162.7338959999999872
21
-27.7621269999999996
0
LINE
8
BLACK
6
CONTINUOUS
10
162.7338959999999872
20
-27.7621269999999996
11
162.8199999999999932
21
-27.7449999999999974
0
LINE
8
BLACK
6
CONTINUOUS
10
162.8199999999999932
20
-27.7449999999999974
11
163.5699999999999932
21
-27.7449999999999974
0
LINE
8
BLACK
6
CONTINUOUS
10
163.5699999999999932
20
-27.7449999999999974
11
163.6561039999999991
21
-27.7621269999999996
0
LINE
8
BLACK
6
CONTINUOUS
10
168.6918969999999831
20
-27.7621269999999996
11
168.7648920000000032
21
-27.8109009999999977
0
LINE
8
BLACK
6
CONTINUOUS
10
168.7648920000000032
20
-27.8109009999999977
11
168.8136659999999836
21
-27.883896
0
LINE
8
BLACK
6
CONTINUOUS
10
168.8136659999999836
20
-27.883896
11
168.8307929999999999
21
-27.9699999999999989
0
LINE
8
BLACK
6
CONTINUOUS
10
168.8307929999999999
20
-27.9699999999999989
11
168.8307929999999999
21
-28.4199999999999982
0
LINE
8
BLACK
6
CONTINUOUS
10
168.8307929999999999
20
-28.4199999999999982
11
168.8136659999999836
21
-28.506103999999997
0
LINE
8
BLACK
6
CONTINUOUS
10
168.8136659999999836
20
-28.506103999999997
11
168.7648920000000032
21
-28.5790989999999994
0
LINE
8
BLACK
6
CONTINUOUS
10
168.7648920000000032
20
-28.5790989999999994
11
168.6918969999999831
21
-28.6278729999999975
0
LINE
8
BLACK
6
CONTINUOUS
10
168.6918969999999831
20
-28.6278729999999975
11
168.6057930000000056
21
-28.6449999999999996
0
LINE
8
BLACK
6
CONTINUOUS
10
168.6057930000000056
20
-28.6449999999999996
11
167.8557930000000056
21
-28.6449999999999996
0
LINE
8
BLACK
6
CONTINUOUS
10
167.8557930000000056
20
-28.6449999999999996
11
167.7696889999999996
21
-28.6278729999999975
0
LINE
8
BLACK
6
CONTINUOUS
10
167.7696889999999996
20
-28.6278729999999975
11
167.6966939999999795
21
-28.5790989999999994
0
LINE
8
BLACK
6
CONTINUOUS
10
167.6966939999999795
20
-28.5790989999999994
11
167.6479199999999992
21
-28.506103999999997
0
LINE
8
BLACK
6
CONTINUOUS
10
167.6479199999999992
20
-28.506103999999997
11
167.6307929999999828
21
-28.4199999999999982
0
LINE
8
BLACK
6
CONTINUOUS
10
167.6307929999999828
20
-28.4199999999999982
11
167.6307929999999828
21
-27.9699999999999989
0
LINE
8
BLACK
6
CONTINUOUS
10
167.6307929999999828
20
-27.9699999999999989
11
167.6479199999999992
21
-27.883896
0
LINE
8
BLACK
6
CONTINUOUS
10
167.6479199999999992
20
-27.883896
11
167.6966939999999795
21
-27.8109009999999977
0
LINE
8
BLACK
6
CONTINUOUS
10
167.6966939999999795
20
-27.8109009999999977
11
167.7696889999999996
21
-27.7621269999999996
0
LINE
8
BLACK
6
CONTINUOUS
10
167.7696889999999996
20
-27.7621269999999996
11
167.8557930000000056
21
-27.7449999999999974
0
LINE
8
BLACK
6
CONTINUOUS
10
167.8557930000000056
20
-27.7449999999999974
11
168.6057930000000056
21
-27.7449999999999974
0
LINE
8
BLACK
6
CONTINUOUS
10
168.6057930000000056
20
-27.7449999999999974
11
168.6918969999999831
21
-27.7621269999999996
0
LINE
8
BLACK
6
CONTINUOUS
10
144.2690939999999955
20
-27.755004999999997
11
144.3420889999999872
21
-27.8037789999999987
0
LINE
8
BLACK
6
CONTINUOUS
10
144.3420889999999872
20
-27.8037789999999987
11
144.390862999999996
21
-27.8767739999999975
0
LINE
8
BLACK
6
CONTINUOUS
10
144.390862999999996
20
-27.8767739999999975
11
144.4079899999999839
21
-27.9628779999999999
0
LINE
8
BLACK
6
CONTINUOUS
10
144.4079899999999839
20
-27.9628779999999999
11
144.4079899999999839
21
-28.4128779999999992
0
LINE
8
BLACK
6
CONTINUOUS
10
144.4079899999999839
20
-28.4128779999999992
11
144.390862999999996
21
-28.498981999999998
0
LINE
8
BLACK
6
CONTINUOUS
10
144.390862999999996
20
-28.498981999999998
11
144.3420889999999872
21
-28.5719770000000004
0
LINE
8
BLACK
6
CONTINUOUS
10
144.3420889999999872
20
-28.5719770000000004
11
144.2690939999999955
21
-28.6207509999999985
0
LINE
8
BLACK
6
CONTINUOUS
10
144.2690939999999955
20
-28.6207509999999985
11
144.1829899999999895
21
-28.6378779999999971
0
LINE
8
BLACK
6
CONTINUOUS
10
144.1829899999999895
20
-28.6378779999999971
11
143.4329899999999895
21
-28.6378779999999971
0
LINE
8
BLACK
6
CONTINUOUS
10
143.4329899999999895
20
-28.6378779999999971
11
143.3468859999999836
21
-28.6207509999999985
0
LINE
8
BLACK
6
CONTINUOUS
10
143.3468859999999836
20
-28.6207509999999985
11
143.2738909999999919
21
-28.5719770000000004
0
LINE
8
BLACK
6
CONTINUOUS
10
143.2738909999999919
20
-28.5719770000000004
11
143.2251169999999831
21
-28.498981999999998
0
LINE
8
BLACK
6
CONTINUOUS
10
143.2251169999999831
20
-28.498981999999998
11
143.2079899999999952
21
-28.4128779999999992
0
LINE
8
BLACK
6
CONTINUOUS
10
143.2079899999999952
20
-28.4128779999999992
11
143.2079899999999952
21
-27.9628779999999999
0
LINE
8
BLACK
6
CONTINUOUS
10
143.2079899999999952
20
-27.9628779999999999
11
143.2251169999999831
21
-27.8767739999999975
0
LINE
8
BLACK
6
CONTINUOUS
10
143.2251169999999831
20
-27.8767739999999975
11
143.2738909999999919
21
-27.8037789999999987
0
LINE
8
BLACK
6
CONTINUOUS
10
143.2738909999999919
20
-27.8037789999999987
11
143.3468859999999836
21
-27.755004999999997
0
LINE
8
BLACK
6
CONTINUOUS
10
143.3468859999999836
20
-27.755004999999997
11
143.4329899999999895
21
-27.7378779999999985
0
LINE
8
BLACK
6
CONTINUOUS
10
143.4329899999999895
20
-27.7378779999999985
11
144.1829899999999895
21
-27.7378779999999985
0
LINE
8
BLACK
6
CONTINUOUS
10
144.1829899999999895
20
-27.7378779999999985
11
144.2690939999999955
21
-27.755004999999997
0
LINE
8
BLACK
6
CONTINUOUS
10
139.253499000000005
20
-27.7542069999999974
11
139.3264939999999967
21
-27.8029809999999991
0
LINE
8
BLACK
6
CONTINUOUS
10
139.3264939999999967
20
-27.8029809999999991
11
139.3752680000000055
21
-27.8759759999999979
0
LINE
8
BLACK
6
CONTINUOUS
10
139.3752680000000055
20
-27.8759759999999979
11
139.3923949999999934
21
-27.9620800000000003
0
LINE
8
BLACK
6
CONTINUOUS
10
139.3923949999999934
20
-27.9620800000000003
11
139.3923949999999934
21
-28.4120799999999996
0
LINE
8
BLACK
6
CONTINUOUS
10
139.3923949999999934
20
-28.4120799999999996
11
139.3752680000000055
21
-28.4981839999999984
0
LINE
8
BLACK
6
CONTINUOUS
10
139.3752680000000055
20
-28.4981839999999984
11
139.3264939999999967
21
-28.5711789999999972
0
LINE
8
BLACK
6
CONTINUOUS
10
139.3264939999999967
20
-28.5711789999999972
11
139.253499000000005
21
-28.6199529999999989
0
LINE
8
BLACK
6
CONTINUOUS
10
139.253499000000005
20
-28.6199529999999989
11
139.1673949999999991
21
-28.6370799999999974
0
LINE
8
BLACK
6
CONTINUOUS
10
139.1673949999999991
20
-28.6370799999999974
11
138.4173949999999991
21
-28.6370799999999974
0
LINE
8
BLACK
6
CONTINUOUS
10
138.4173949999999991
20
-28.6370799999999974
11
138.3312909999999931
21
-28.6199529999999989
0
LINE
8
BLACK
6
CONTINUOUS
10
138.3312909999999931
20
-28.6199529999999989
11
138.2582960000000014
21
-28.5711789999999972
0
LINE
8
BLACK
6
CONTINUOUS
10
138.2582960000000014
20
-28.5711789999999972
11
138.2095219999999927
21
-28.4981839999999984
0
LINE
8
BLACK
6
CONTINUOUS
10
138.2095219999999927
20
-28.4981839999999984
11
138.1923950000000048
21
-28.4120799999999996
0
LINE
8
BLACK
6
CONTINUOUS
10
138.1923950000000048
20
-28.4120799999999996
11
138.1923950000000048
21
-27.9620800000000003
0
LINE
8
BLACK
6
CONTINUOUS
10
138.1923950000000048
20
-27.9620800000000003
11
138.2095219999999927
21
-27.8759759999999979
0
LINE
8
BLACK
6
CONTINUOUS
10
138.2095219999999927
20
-27.8759759999999979
11
138.2582960000000014
21
-27.8029809999999991
0
LINE
8
BLACK
6
CONTINUOUS
10
138.2582960000000014
20
-27.8029809999999991
11
138.3312909999999931
21
-27.7542069999999974
0
LINE
8
BLACK
6
CONTINUOUS
10
138.3312909999999931
20
-27.7542069999999974
11
138.4173949999999991
21
-27.7370799999999988
0
LINE
8
BLACK
6
CONTINUOUS
10
138.4173949999999991
20
-27.7370799999999988
11
139.1673949999999991
21
-27.7370799999999988
0
LINE
8
BLACK
6
CONTINUOUS
10
139.1673949999999991
20
-27.7370799999999988
11
139.253499000000005
21
-27.7542069999999974
0
LINE
8
BLACK
6
CONTINUOUS
10
141.7853939999999966
20
-27.7542069999999974
11
141.8583889999999883
21
-27.8029809999999991
0
LINE
8
BLACK
6
CONTINUOUS
10
141.8583889999999883
20
-27.8029809999999991
11
141.9071629999999971
21
-27.8759759999999979
0
LINE
8
BLACK
6
CONTINUOUS
10
141.9071629999999971
20
-27.8759759999999979
11
141.924289999999985
21
-27.9620800000000003
0
LINE
8
BLACK
6
CONTINUOUS
10
141.924289999999985
20
-27.9620800000000003
11
141.924289999999985
21
-28.4120799999999996
0
LINE
8
BLACK
6
CONTINUOUS
10
141.924289999999985
20
-28.4120799999999996
11
141.9071629999999971
21
-28.4981839999999984
0
LINE
8
BLACK
6
CONTINUOUS
10
141.9071629999999971
20
-28.4981839999999984
11
141.8583889999999883
21
-28.5711789999999972
0
LINE
8
BLACK
6
CONTINUOUS
10
141.8583889999999883
20
-28.5711789999999972
11
141.7853939999999966
21
-28.6199529999999989
0
LINE
8
BLACK
6
CONTINUOUS
10
141.7853939999999966
20
-28.6199529999999989
11
141.6992899999999906
21
-28.6370799999999974
0
LINE
8
BLACK
6
CONTINUOUS
10
141.6992899999999906
20
-28.6370799999999974
11
140.9492899999999906
21
-28.6370799999999974
0
LINE
8
BLACK
6
CONTINUOUS
10
140.9492899999999906
20
-28.6370799999999974
11
140.8631859999999847
21
-28.6199529999999989
0
LINE
8
BLACK
6
CONTINUOUS
10
140.8631859999999847
20
-28.6199529999999989
11
140.790190999999993
21
-28.5711789999999972
0
LINE
8
BLACK
6
CONTINUOUS
10
140.790190999999993
20
-28.5711789999999972
11
140.7414169999999842
21
-28.4981839999999984
0
LINE
8
BLACK
6
CONTINUOUS
10
140.7414169999999842
20
-28.4981839999999984
11
140.7242899999999963
21
-28.4120799999999996
0
LINE
8
BLACK
6
CONTINUOUS
10
140.7242899999999963
20
-28.4120799999999996
11
140.7242899999999963
21
-27.9620800000000003
0
LINE
8
BLACK
6
CONTINUOUS
10
140.7242899999999963
20
-27.9620800000000003
11
140.7414169999999842
21
-27.8759759999999979
0
LINE
8
BLACK
6
CONTINUOUS
10
140.7414169999999842
20
-27.8759759999999979
11
140.790190999999993
21
-27.8029809999999991
0
LINE
8
BLACK
6
CONTINUOUS
10
140.790190999999993
20
-27.8029809999999991
11
140.8631859999999847
21
-27.7542069999999974
0
LINE
8
BLACK
6
CONTINUOUS
10
140.8631859999999847
20
-27.7542069999999974
11
140.9492899999999906
21
-27.7370799999999988
0
LINE
8
BLACK
6
CONTINUOUS
10
140.9492899999999906
20
-27.7370799999999988
11
141.6992899999999906
21
-27.7370799999999988
0
LINE
8
BLACK
6
CONTINUOUS
10
141.6992899999999906
20
-27.7370799999999988
11
141.7853939999999966
21
-27.7542069999999974
0
LINE
8
BLACK
6
CONTINUOUS
10
155.993676999999991
20
-27.7527329999999992
11
156.0666719999999827
21
-27.8015069999999973
0
LINE
8
BLACK
6
CONTINUOUS
10
156.0666719999999827
20
-27.8015069999999973
11
156.1154459999999915
21
-27.8745019999999997
0
LINE
8
BLACK
6
CONTINUOUS
10
156.1154459999999915
20
-27.8745019999999997
11
156.1325729999999794
21
-27.9606059999999985
0
LINE
8
BLACK
6
CONTINUOUS
10
156.1325729999999794
20
-27.9606059999999985
11
156.1325729999999794
21
-28.4106059999999978
0
LINE
8
BLACK
6
CONTINUOUS
10
156.1325729999999794
20
-28.4106059999999978
11
156.1154459999999915
21
-28.4967100000000002
0
LINE
8
BLACK
6
CONTINUOUS
10
156.1154459999999915
20
-28.4967100000000002
11
156.0666719999999827
21
-28.569704999999999
0
LINE
8
BLACK
6
CONTINUOUS
10
156.0666719999999827
20
-28.569704999999999
11
155.993676999999991
21
-28.6184789999999971
0
LINE
8
BLACK
6
CONTINUOUS
10
155.993676999999991
20
-28.6184789999999971
11
155.9075729999999851
21
-28.6356059999999992
0
LINE
8
BLACK
6
CONTINUOUS
10
155.9075729999999851
20
-28.6356059999999992
11
155.1575729999999851
21
-28.6356059999999992
0
LINE
8
BLACK
6
CONTINUOUS
10
155.1575729999999851
20
-28.6356059999999992
11
155.0714689999999791
21
-28.6184789999999971
0
LINE
8
BLACK
6
CONTINUOUS
10
155.0714689999999791
20
-28.6184789999999971
11
154.9984739999999874
21
-28.569704999999999
0
LINE
8
BLACK
6
CONTINUOUS
10
154.9984739999999874
20
-28.569704999999999
11
154.9497000000000071
21
-28.4967100000000002
0
LINE
8
BLACK
6
CONTINUOUS
10
154.9497000000000071
20
-28.4967100000000002
11
154.9325729999999908
21
-28.4106059999999978
0
LINE
8
BLACK
6
CONTINUOUS
10
154.9325729999999908
20
-28.4106059999999978
11
154.9325729999999908
21
-27.9606059999999985
0
LINE
8
BLACK
6
CONTINUOUS
10
154.9325729999999908
20
-27.9606059999999985
11
154.9497000000000071
21
-27.8745019999999997
0
LINE
8
BLACK
6
CONTINUOUS
10
154.9497000000000071
20
-27.8745019999999997
11
154.9984739999999874
21
-27.8015069999999973
0
LINE
8
BLACK
6
CONTINUOUS
10
154.9984739999999874
20
-27.8015069999999973
11
155.0714689999999791
21
-27.7527329999999992
0
LINE
8
BLACK
6
CONTINUOUS
10
155.0714689999999791
20
-27.7527329999999992
11
155.1575729999999851
21
-27.7356059999999971
0
LINE
8
BLACK
6
CONTINUOUS
10
155.1575729999999851
20
-27.7356059999999971
11
155.9075729999999851
21
-27.7356059999999971
0
LINE
8
BLACK
6
CONTINUOUS
10
155.9075729999999851
20
-27.7356059999999971
11
155.993676999999991
21
-27.7527329999999992
0
LINE
8
BLACK
6
CONTINUOUS
10
146.7974279999999965
20
-27.7478829999999981
11
146.8704229999999882
21
-27.7966569999999997
0
LINE
8
BLACK
6
CONTINUOUS
10
146.8704229999999882
20
-27.7966569999999997
11
146.9191969999999969
21
-27.8696519999999985
0
LINE
8
BLACK
6
CONTINUOUS
10
146.9191969999999969
20
-27.8696519999999985
11
146.9363239999999848
21
-27.9557559999999974
0
LINE
8
BLACK
6
CONTINUOUS
10
146.9363239999999848
20
-27.9557559999999974
11
146.9363239999999848
21
-28.4057560000000002
0
LINE
8
BLACK
6
CONTINUOUS
10
146.9363239999999848
20
-28.4057560000000002
11
146.9191969999999969
21
-28.4918599999999991
0
LINE
8
BLACK
6
CONTINUOUS
10
146.9191969999999969
20
-28.4918599999999991
11
146.8704229999999882
21
-28.5648549999999979
0
LINE
8
BLACK
6
CONTINUOUS
10
146.8704229999999882
20
-28.5648549999999979
11
146.7974279999999965
21
-28.6136289999999995
0
LINE
8
BLACK
6
CONTINUOUS
10
146.7974279999999965
20
-28.6136289999999995
11
146.7113239999999905
21
-28.6307559999999981
0
LINE
8
BLACK
6
CONTINUOUS
10
146.7113239999999905
20
-28.6307559999999981
11
145.9613239999999905
21
-28.6307559999999981
0
LINE
8
BLACK
6
CONTINUOUS
10
145.9613239999999905
20
-28.6307559999999981
11
145.8752199999999846
21
-28.6136289999999995
0
LINE
8
BLACK
6
CONTINUOUS
10
145.8752199999999846
20
-28.6136289999999995
11
145.8022249999999929
21
-28.5648549999999979
0
LINE
8
BLACK
6
CONTINUOUS
10
145.8022249999999929
20
-28.5648549999999979
11
145.7534509999999841
21
-28.4918599999999991
0
LINE
8
BLACK
6
CONTINUOUS
10
145.7534509999999841
20
-28.4918599999999991
11
145.7363239999999962
21
-28.4057560000000002
0
LINE
8
BLACK
6
CONTINUOUS
10
145.7363239999999962
20
-28.4057560000000002
11
145.7363239999999962
21
-27.9557559999999974
0
LINE
8
BLACK
6
CONTINUOUS
10
145.7363239999999962
20
-27.9557559999999974
11
145.7534509999999841
21
-27.8696519999999985
0
LINE
8
BLACK
6
CONTINUOUS
10
145.7534509999999841
20
-27.8696519999999985
11
145.8022249999999929
21
-27.7966569999999997
0
LINE
8
BLACK
6
CONTINUOUS
10
145.8022249999999929
20
-27.7966569999999997
11
145.8752199999999846
21
-27.7478829999999981
0
LINE
8
BLACK
6
CONTINUOUS
10
145.8752199999999846
20
-27.7478829999999981
11
145.9613239999999905
21
-27.7307559999999995
0
LINE
8
BLACK
6
CONTINUOUS
10
145.9613239999999905
20
-27.7307559999999995
11
146.7113239999999905
21
-27.7307559999999995
0
LINE
8
BLACK
6
CONTINUOUS
10
146.7113239999999905
20
-27.7307559999999995
11
146.7974279999999965
21
-27.7478829999999981
0
LINE
8
BLACK
6
CONTINUOUS
10
136.769677999999999
20
-27.7392609999999991
11
136.8426729999999907
21
-27.7880349999999972
0
LINE
8
BLACK
6
CONTINUOUS
10
136.8426729999999907
20
-27.7880349999999972
11
136.8914469999999994
21
-27.8610299999999995
0
LINE
8
BLACK
6
CONTINUOUS
10
136.8914469999999994
20
-27.8610299999999995
11
136.9085739999999873
21
-27.9471339999999984
0
LINE
8
BLACK
6
CONTINUOUS
10
136.9085739999999873
20
-27.9471339999999984
11
136.9085739999999873
21
-28.3971339999999977
0
LINE
8
BLACK
6
CONTINUOUS
10
136.9085739999999873
20
-28.3971339999999977
11
136.8914469999999994
21
-28.4832380000000001
0
LINE
8
BLACK
6
CONTINUOUS
10
136.8914469999999994
20
-28.4832380000000001
11
136.8426729999999907
21
-28.5562329999999989
0
LINE
8
BLACK
6
CONTINUOUS
10
136.8426729999999907
20
-28.5562329999999989
11
136.769677999999999
21
-28.605006999999997
0
LINE
8
BLACK
6
CONTINUOUS
10
136.769677999999999
20
-28.605006999999997
11
136.683573999999993
21
-28.6221339999999991
0
LINE
8
BLACK
6
CONTINUOUS
10
136.683573999999993
20
-28.6221339999999991
11
135.933573999999993
21
-28.6221339999999991
0
LINE
8
BLACK
6
CONTINUOUS
10
135.933573999999993
20
-28.6221339999999991
11
135.8474699999999871
21
-28.605006999999997
0
LINE
8
BLACK
6
CONTINUOUS
10
135.8474699999999871
20
-28.605006999999997
11
135.7744749999999954
21
-28.5562329999999989
0
LINE
8
BLACK
6
CONTINUOUS
10
135.7744749999999954
20
-28.5562329999999989
11
135.7257009999999866
21
-28.4832380000000001
0
LINE
8
BLACK
6
CONTINUOUS
10
135.7257009999999866
20
-28.4832380000000001
11
135.7085739999999987
21
-28.3971339999999977
0
LINE
8
BLACK
6
CONTINUOUS
10
135.7085739999999987
20
-28.3971339999999977
11
135.7085739999999987
21
-27.9471339999999984
0
LINE
8
BLACK
6
CONTINUOUS
10
135.7085739999999987
20
-27.9471339999999984
11
135.7257009999999866
21
-27.8610299999999995
0
LINE
8
BLACK
6
CONTINUOUS
10
135.7257009999999866
20
-27.8610299999999995
11
135.7744749999999954
21
-27.7880349999999972
0
LINE
8
BLACK
6
CONTINUOUS
10
135.7744749999999954
20
-27.7880349999999972
11
135.8474699999999871
21
-27.7392609999999991
0
LINE
8
BLACK
6
CONTINUOUS
10
135.8474699999999871
20
-27.7392609999999991
11
135.933573999999993
21
-27.7221340000000005
0
LINE
8
BLACK
6
CONTINUOUS
10
135.933573999999993
20
-27.7221340000000005
11
136.683573999999993
21
-27.7221340000000005
0
LINE
8
BLACK
6
CONTINUOUS
10
136.683573999999993
20
-27.7221340000000005
11
136.769677999999999
21
-27.7392609999999991
  0
ENDSEC
  0
EOF
